<?xml version="1.0" encoding="UTF-8" standalone="no"?>
<!-- Created with Inkscape (http://www.inkscape.org/) -->

<svg
   xmlns:dc="http://purl.org/dc/elements/1.1/"
   xmlns:cc="http://creativecommons.org/ns#"
   xmlns:rdf="http://www.w3.org/1999/02/22-rdf-syntax-ns#"
   xmlns:svg="http://www.w3.org/2000/svg"
   xmlns="http://www.w3.org/2000/svg"
   xmlns:sodipodi="http://sodipodi.sourceforge.net/DTD/sodipodi-0.dtd"
   xmlns:inkscape="http://www.inkscape.org/namespaces/inkscape"
   width="1920"
   height="1080"
   viewBox="0 0 1920 1080"
   id="svg2"
   version="1.1"
   inkscape:version="0.91 r13725"
   sodipodi:docname="elephant.svg">
  <defs
     id="defs4" />
  <sodipodi:namedview
     id="base"
     pagecolor="#ffffff"
     bordercolor="#666666"
     borderopacity="1.0"
     inkscape:pageopacity="0.0"
     inkscape:pageshadow="2"
     inkscape:zoom="0.30625771"
     inkscape:cx="2600.718"
     inkscape:cy="468.66187"
     inkscape:document-units="px"
     inkscape:current-layer="layer5"
     showgrid="false"
     units="px"
     inkscape:window-width="1366"
     inkscape:window-height="704"
     inkscape:window-x="0"
     inkscape:window-y="27"
     inkscape:window-maximized="1" />
  <metadata
     id="metadata7">
    <rdf:RDF>
      <cc:Work
         rdf:about="">
        <dc:format>image/svg+xml</dc:format>
        <dc:type
           rdf:resource="http://purl.org/dc/dcmitype/StillImage" />
        <dc:title></dc:title>
      </cc:Work>
    </rdf:RDF>
  </metadata>
  <g
     inkscape:groupmode="layer"
     id="layer3"
     inkscape:label="static-background"
     style="display:inline">
    <rect
       style="display:inline;opacity:1;fill:#aaaaff;fill-opacity:1;fill-rule:evenodd;stroke:none;stroke-width:5;stroke-linecap:round;stroke-linejoin:round;stroke-miterlimit:4;stroke-dasharray:none;stroke-dashoffset:0;stroke-opacity:1"
       id="rect4227"
       width="2085.9421"
       height="1074.8281"
       x="-74.794739"
       y="-50.231651" />
    <rect
       style="display:inline;opacity:1;fill:#502d16;fill-opacity:1;fill-rule:evenodd;stroke:none;stroke-width:8;stroke-linecap:round;stroke-linejoin:round;stroke-miterlimit:4;stroke-dasharray:none;stroke-dashoffset:0;stroke-opacity:1"
       id="rect4223"
       width="2136.8225"
       height="290.77014"
       x="-135.24193"
       y="762.18146" />
  </g>
  <g
     inkscape:label="elephant3"
     inkscape:groupmode="layer"
     id="layer1"
     transform="translate(0,27.63784)"
     style="display:inline">
    <rect
       style="display:inline;opacity:1;fill:#333333;fill-opacity:1;fill-rule:evenodd;stroke:#000000;stroke-width:8;stroke-linecap:round;stroke-linejoin:round;stroke-miterlimit:4;stroke-dasharray:none;stroke-dashoffset:0;stroke-opacity:1"
       id="rect4144"
       width="74.979973"
       height="102.75034"
       x="-512.3537"
       y="1134.1907"
       transform="matrix(-0.90011286,0.4356568,0.4356568,0.90011286,0,-27.63784)" />
    <rect
       transform="matrix(-0.92403501,0.38230787,0.38230787,0.92403501,0,-27.63784)"
       y="1034.2883"
       x="-414.61725"
       height="102.75034"
       width="74.979973"
       id="rect4140"
       style="display:inline;opacity:1;fill:#333333;fill-opacity:1;fill-rule:evenodd;stroke:#000000;stroke-width:8;stroke-linecap:round;stroke-linejoin:round;stroke-miterlimit:4;stroke-dasharray:none;stroke-dashoffset:0;stroke-opacity:1"
       inkscape:transform-center-x="-9.868077"
       inkscape:transform-center-y="27.697007" />
    <path
       sodipodi:nodetypes="scccccccccccs"
       inkscape:connector-curvature="0"
       style="opacity:1;fill:#666666;fill-opacity:1;fill-rule:evenodd;stroke:none;stroke-width:8;stroke-linecap:round;stroke-linejoin:round;stroke-miterlimit:4;stroke-dasharray:none;stroke-dashoffset:0;stroke-opacity:1"
       d="m 826.64518,521.55949 c -97.39073,-10e-6 -176.34158,69.62578 -176.3418,155.51367 0.0707,42.08852 19.4828,82.35447 53.80274,111.60156 l -34.36586,76.3322 65.07011,29.63234 30.02214,-71.55092 c 15.36787,8.26145 53.52486,9.43739 61.81267,9.50044 25.29243,-0.0659 24.83316,-1.11057 24.83316,-1.11057 l -19.66129,41.29869 66.8632,30.23002 64.31649,-127.46306 c 25.82226,-27.76716 39.95196,-62.55976 39.99026,-98.4707 -2e-4,-85.8879 -78.95108,-155.51369 -176.34182,-155.51367 z"
       id="path4197" />
    <path
       style="display:inline;opacity:1;fill:#333333;fill-opacity:1;fill-rule:evenodd;stroke:none;stroke-width:8;stroke-linecap:round;stroke-linejoin:round;stroke-miterlimit:4;stroke-dasharray:none;stroke-dashoffset:0;stroke-opacity:1"
       d="m 655.84635,715.20792 a 176.34178,155.51402 0 0 0 170.79883,117.38086 176.34178,155.51402 0 0 0 103.82812,-30.04687 157.72487,123.26804 0 0 0 0.68164,-3.51563 205.46016,127.95509 14.370874 0 1 -136.80859,-3.25781 205.46016,127.95509 14.370874 0 1 -138.5,-80.56055 z"
       id="path4161"
       inkscape:connector-curvature="0" />
    <path
       id="path4174"
       d="m 826.64518,521.55949 c -97.39073,-10e-6 -176.34158,69.62578 -176.3418,155.51367 0.0707,42.08852 19.4828,82.35447 53.80274,111.60156 l -34.36586,76.3322 65.07011,29.63234 30.02214,-71.55092 c 15.36787,8.26145 53.52486,9.43739 61.81267,9.50044 25.29243,-0.0659 24.83316,-1.11057 24.83316,-1.11057 l -19.66129,41.29869 66.8632,30.23002 64.31649,-127.46306 c 25.82226,-27.76716 39.95196,-62.55976 39.99026,-98.4707 -2e-4,-85.8879 -78.95108,-155.51369 -176.34182,-155.51367 z"
       style="opacity:1;fill:none;fill-opacity:1;fill-rule:evenodd;stroke:#000000;stroke-width:8;stroke-linecap:round;stroke-linejoin:round;stroke-miterlimit:4;stroke-dasharray:none;stroke-dashoffset:0;stroke-opacity:1"
       inkscape:connector-curvature="0"
       sodipodi:nodetypes="scccccccccccs" />
  </g>
  <g
     style="display:inline"
     transform="translate(0,27.63784)"
     id="g4209"
     inkscape:groupmode="layer"
     inkscape:label="elephant2">
    <path
       id="path4221"
       d="m 826.64518,521.55949 c -97.39073,-10e-6 -176.34158,69.62578 -176.3418,155.51367 0.0707,42.08852 16.64444,82.35447 50.96438,111.60156 l 0,107.58486 62.23176,0 1.33299,-73.17124 c 15.36787,8.26145 53.52486,9.43739 61.81267,9.50044 25.29243,-0.0659 50.30383,-7.08748 50.30383,-7.08748 l -0.53519,70.75828 56.93248,0 0.58892,-89.76681 29.06152,-30.94891 c 25.82226,-27.76716 39.95196,-62.55976 39.99026,-98.4707 -2e-4,-85.8879 -78.95108,-155.51369 -176.34182,-155.51367 z"
       style="opacity:1;fill:#666666;fill-opacity:1;fill-rule:evenodd;stroke:#000000;stroke-width:8;stroke-linecap:round;stroke-linejoin:round;stroke-miterlimit:4;stroke-dasharray:none;stroke-dashoffset:0;stroke-opacity:1"
       inkscape:connector-curvature="0"
       sodipodi:nodetypes="sccccccccccccs" />
    <path
       inkscape:connector-curvature="0"
       id="path4217"
       d="m 655.84635,715.20792 a 176.34178,155.51402 0 0 0 170.79883,117.38086 176.34178,155.51402 0 0 0 103.82812,-30.04687 157.72487,123.26804 0 0 0 0.68164,-3.51563 205.46016,127.95509 14.370874 0 1 -136.80859,-3.25781 205.46016,127.95509 14.370874 0 1 -138.5,-80.56055 z"
       style="display:inline;opacity:1;fill:#333333;fill-opacity:1;fill-rule:evenodd;stroke:none;stroke-width:8;stroke-linecap:round;stroke-linejoin:round;stroke-miterlimit:4;stroke-dasharray:none;stroke-dashoffset:0;stroke-opacity:1" />
    <path
       sodipodi:nodetypes="sccccccccccccs"
       inkscape:connector-curvature="0"
       style="opacity:1;fill:none;fill-opacity:1;fill-rule:evenodd;stroke:#000000;stroke-width:8;stroke-linecap:round;stroke-linejoin:round;stroke-miterlimit:4;stroke-dasharray:none;stroke-dashoffset:0;stroke-opacity:1"
       d="m 826.64518,521.55949 c -97.39073,-10e-6 -176.34158,69.62578 -176.3418,155.51367 0.0707,42.08852 16.64444,82.35447 50.96438,111.60156 l 0,107.58486 62.23176,0 1.33299,-73.17124 c 15.36787,8.26145 53.52486,9.43739 61.81267,9.50044 25.29243,-0.0659 50.30383,-7.08748 50.30383,-7.08748 l -0.53519,70.75828 56.93248,0 0.58892,-89.76681 29.06152,-30.94891 c 25.82226,-27.76716 39.95196,-62.55976 39.99026,-98.4707 -2e-4,-85.8879 -78.95108,-155.51369 -176.34182,-155.51367 z"
       id="path4219" />
  </g>
  <g
     inkscape:groupmode="layer"
     id="layer2"
     inkscape:label="elephant1"
     style="display:inline">
    <rect
       transform="matrix(-0.91567213,-0.40192605,-0.40192605,0.91567213,0,27.63784)"
       y="361.27765"
       x="-1186.8188"
       height="102.75034"
       width="74.979973"
       id="rect4199"
       style="display:inline;opacity:1;fill:#333333;fill-opacity:1;fill-rule:evenodd;stroke:#000000;stroke-width:8;stroke-linecap:round;stroke-linejoin:round;stroke-miterlimit:4;stroke-dasharray:none;stroke-dashoffset:0;stroke-opacity:1" />
    <rect
       style="display:inline;opacity:1;fill:#333333;fill-opacity:1;fill-rule:evenodd;stroke:#000000;stroke-width:8;stroke-linecap:round;stroke-linejoin:round;stroke-miterlimit:4;stroke-dasharray:none;stroke-dashoffset:0;stroke-opacity:1"
       id="rect4201"
       width="74.979973"
       height="102.75034"
       x="-1034.277"
       y="421.87384"
       transform="matrix(-0.91567213,-0.40192605,-0.40192605,0.91567213,0,27.63784)" />
    <path
       inkscape:connector-curvature="0"
       id="path4186"
       d="m 826.64518,521.55949 a 176.34178,155.51402 0 0 0 -176.3418,155.51367 176.34178,155.51402 0 0 0 53.80274,111.60156 l 44.52929,107.41211 68.65625,-30.13672 -15.40234,-35.09179 a 176.34178,155.51402 0 0 0 24.75586,1.73046 176.34178,155.51402 0 0 0 73.24609,-14.25976 l 34.13086,77.75781 68.65627,-30.13672 -39.68166,-90.40625 A 176.34178,155.51402 0 0 0 1002.987,677.07316 176.34178,155.51402 0 0 0 826.64518,521.55949 Z"
       style="opacity:1;fill:#666666;fill-opacity:1;fill-rule:evenodd;stroke:none;stroke-width:8;stroke-linecap:round;stroke-linejoin:round;stroke-miterlimit:4;stroke-dasharray:none;stroke-dashoffset:0;stroke-opacity:1"
       transform="translate(0,27.63784)" />
    <path
       transform="translate(0,27.63784)"
       inkscape:connector-curvature="0"
       id="path4190"
       d="m 655.84635,715.20792 a 176.34178,155.51402 0 0 0 170.79883,117.38086 176.34178,155.51402 0 0 0 103.82812,-30.04687 157.72487,123.26804 0 0 0 0.68164,-3.51563 205.46016,127.95509 14.370874 0 1 -136.80859,-3.25781 205.46016,127.95509 14.370874 0 1 -138.5,-80.56055 z"
       style="display:inline;opacity:1;fill:#333333;fill-opacity:1;fill-rule:evenodd;stroke:none;stroke-width:8;stroke-linecap:round;stroke-linejoin:round;stroke-miterlimit:4;stroke-dasharray:none;stroke-dashoffset:0;stroke-opacity:1" />
    <path
       style="opacity:1;fill:none;fill-opacity:1;fill-rule:evenodd;stroke:#000000;stroke-width:8;stroke-linecap:round;stroke-linejoin:round;stroke-miterlimit:4;stroke-dasharray:none;stroke-dashoffset:0;stroke-opacity:1"
       d="m 826.64518,521.55949 a 176.34178,155.51402 0 0 0 -176.3418,155.51367 176.34178,155.51402 0 0 0 53.80274,111.60156 l 44.52929,107.41211 68.65625,-30.13672 -15.40234,-35.09179 a 176.34178,155.51402 0 0 0 24.75586,1.73046 176.34178,155.51402 0 0 0 73.24609,-14.25976 l 34.13086,77.75781 68.65627,-30.13672 -39.68166,-90.40625 A 176.34178,155.51402 0 0 0 1002.987,677.07316 176.34178,155.51402 0 0 0 826.64518,521.55949 Z"
       id="path4193"
       inkscape:connector-curvature="0"
       transform="translate(0,27.63784)" />
  </g>
  <g
     inkscape:groupmode="layer"
     id="layer4"
     inkscape:label="elephant-head"
     style="display:inline"
     transform="translate(0,312)">
    <path
       style="opacity:1;fill:#666666;fill-opacity:1;fill-rule:evenodd;stroke:#000000;stroke-width:8;stroke-linecap:round;stroke-linejoin:round;stroke-miterlimit:4;stroke-dasharray:none;stroke-dashoffset:0;stroke-opacity:1"
       d="m 1062.6696,148.90631 c -4.032,0.0653 -8.1374,0.6732 -12.3125,1.88477 -17.0948,4.96073 -18.4919,38.53483 -17.6172,59.73632 a 111.13535,94.149612 0 0 0 -44.42967,-7.9746 111.13535,94.149612 0 0 0 -107.084,68.96484 c -12.8219,-6.66465 -51.2917,-24.66943 -67.1406,-9.75781 -40.5275,38.1309 9.9721,116.84492 43.6778,161.12109 16.1662,21.23625 46.7971,55.70447 68.914,40.76563 25.2753,-17.07216 25.2117,-57.01707 23.0762,-78.71094 a 111.13535,94.149612 0 0 0 38.5566,5.91601 111.13535,94.149612 0 0 0 2.2403,-0.0664 c 10.41317,14.94168 21.46007,32.42246 26.39447,45.68554 5.6958,15.30947 9.316,32.39066 6.793,48.5293 -3.1069,19.87269 -26.20707,54.35547 -26.20707,54.35547 0,15.52983 15.53067,29.11868 30.08987,24.26563 0,0 31.0827,-40.06153 35.9121,-64.06055 4.4969,-22.34712 -7.0363,-45.15988 -7.7637,-67.94336 -0.5389,-16.88019 1.2619,-44.52729 2.5899,-61.88477 a 111.13535,94.149612 0 0 0 32.8847,-37.625 c 16.9646,12.52639 48.8039,31.06174 75.7031,18.28907 24.1095,-11.44803 10.0031,-55.34973 -0.062,-80.06836 -19.3465,-47.51042 -56.6373,-122.19268 -104.2148,-121.42188 z"
       id="path4176"
       inkscape:connector-curvature="0" />
    <ellipse
       style="opacity:1;fill:#000000;fill-opacity:1;fill-rule:evenodd;stroke:none;stroke-width:4;stroke-linecap:round;stroke-linejoin:round;stroke-miterlimit:4;stroke-dasharray:none;stroke-dashoffset:0;stroke-opacity:1"
       id="path4185"
       cx="982.76343"
       cy="310.32663"
       rx="8.1788216"
       ry="9.6085939" />
    <ellipse
       ry="9.6085939"
       rx="8.1788216"
       cy="297.53452"
       cx="1030.0554"
       id="ellipse4187"
       style="opacity:1;fill:#000000;fill-opacity:1;fill-rule:evenodd;stroke:none;stroke-width:4;stroke-linecap:round;stroke-linejoin:round;stroke-miterlimit:4;stroke-dasharray:none;stroke-dashoffset:0;stroke-opacity:1" />
  </g>
  <g
     inkscape:groupmode="layer"
     id="layer5"
     inkscape:label="foreground">
    <path
       sodipodi:nodetypes="ccccc"
       inkscape:connector-curvature="0"
       id="path4267"
       d="m 3048.2051,463.48528 64.6456,0 c -5.5404,238.2351 -17.7018,457.62465 10,568.43172 l -88.6456,0 c 24.9316,-77.56497 19.5404,-283.10363 14,-568.43172 z"
       style="opacity:1;fill:#28170b;fill-opacity:1;fill-rule:evenodd;stroke:#000000;stroke-width:4;stroke-linecap:round;stroke-linejoin:round;stroke-miterlimit:4;stroke-dasharray:none;stroke-dashoffset:0;stroke-opacity:1" />
    <path
       style="opacity:1;fill:#28170b;fill-opacity:1;fill-rule:evenodd;stroke:#000000;stroke-width:4;stroke-linecap:round;stroke-linejoin:round;stroke-miterlimit:4;stroke-dasharray:none;stroke-dashoffset:0;stroke-opacity:1"
       d="M 185.33789 371.65234 L 277.4043 528.41211 C 282.83357 804.61988 287.6185 965.82911 263.12305 1042.0371 L 351.76758 1042.0371 C 324.35702 932.39507 335.96721 756.10769 341.58203 521.61523 L 394.79492 371.65234 L 359.16016 371.65234 L 317.35938 479.55469 L 310.73438 371.65234 L 269.52148 371.65234 L 279.27734 477.01562 L 220.3125 371.65234 L 185.33789 371.65234 z "
       id="path4247" />
    <path
       style="opacity:1;fill:#002b11;fill-opacity:1;fill-rule:evenodd;stroke:#000000;stroke-width:4.35724068;stroke-linecap:round;stroke-linejoin:round;stroke-miterlimit:4;stroke-dasharray:none;stroke-dashoffset:0;stroke-opacity:1"
       d="m 498.71118,328.4917 c 5.33294,1.68021 8.93988,4.98901 -0.25314,6.23312 9.70122,3.52804 6.39745,18.80502 -4.30053,19.9416 9.55446,10.38444 -0.14832,16.73438 -7.5277,15.94599 7.97273,10.4061 -3.00263,18.20446 -10.12177,14.14217 4.24714,9.28382 -7.26854,23.06605 -14.80197,14.85353 2.1558,9.76375 -7.69145,16.09714 -13.51852,10.37028 1.83897,11.6032 -11.06299,20.3216 -17.74674,10.74844 -0.49649,14.94059 -15.76329,13.18364 -21.75311,10.08223 -1.89366,9.41301 -9.10985,14.96311 -17.3219,6.17761 -3.3847,10.39571 -8.77278,10.16666 -17.37857,4.84078 -3.96602,7.95814 -19.69199,12.0915 -25.59684,4.98859 -5.00764,10.41646 -15.87179,1.93609 -15.87179,1.93609 -5.96126,9.575 -13.44081,6.8934 -17.50448,1.17821 -9.31435,12.47192 -8.4087,0.24895 -12.66247,0.24895 -10.1093,10.66588 -19.53025,11.06076 -28.27169,3.22714 -4.43284,6.82121 -14.69149,9.73545 -22.02884,2.844 -3.51104,6.487 -28.82215,-1.40486 -28.28169,-16.20702 -4.3674,12.92256 -21.17336,14.85733 -19.50982,-6.11233 -9.40911,10.55326 -22.69326,7.21619 -22.25819,-9.28018 -14.65457,11.31551 -23.82955,-4.9391 -23.93099,-13.61707 -11.42844,7.32658 -25.38757,8.7413 -17.95447,-13.96851 -18.3015,7.39115 -23.47275,-5.07733 -18.19195,-20.47994 -10.36409,2.05737 -19.747,-0.88802 -11.19345,-21.40201 -14.782143,-4.90115 -16.904495,-15.88448 -4.73843,-26.69167 -16.405163,-10.79616 -7.697126,-27.77638 4.36628,-25.63914 -16.534434,-16.12282 -4.67859,-28.37275 11.43694,-22.26899 -10.40929,-19.06655 0.63971,-20.04472 7.92483,-10.12792 -9.52536,-20.81685 3.63047,-31.9183 17.50524,-16.5789 -2.98284,-27.52849 11.29938,-24.81508 17.59322,-12.23798 -1.77309,-25.86596 7.12159,-20.35565 15.85742,-8.66265 1.77529,-25.22084 14.78259,-18.91063 23.36203,-9.84437 3.01195,-29.21443 16.76813,-20.09268 24.41534,-7.416 5.38279,-31.57005 17.41639,-18.82578 24.05952,-4.95753 7.64447,-24.98747 12.20152,-9.3882 18.45787,-2.40854 7.04811,-23.86902 15.80827,-17.12166 20.26088,-1.35372 6.08126,-10.13048 11.11995,-0.19185 11.11995,-0.19185 10.84518,-18.44457 15.60677,-13.01208 19.08614,0.56749 11.28455,-22.66722 17.31376,-16.62455 27.24165,2.83894 8.9216,-14.74745 14.14426,-20.13677 16.85612,3.0305 4.70887,-17.33044 17.32575,-8.92602 15.03368,3.60043 14.17738,-15.7542 23.83554,-0.49612 20.33146,6.37499 17.5094,-11.05523 23.01565,-6.02104 21.39966,8.92328 16.39911,-9.97189 24.13681,-7.64996 16.41927,8.79624 21.73288,-8.38353 21.00108,2.91797 15.6193,10.50292 18.96199,-6.20658 18.30978,5.19731 13.39792,11.42616 14.30187,-1.64408 14.64074,7.15288 12.0559,13.44592 18.73933,-2.57324 17.36445,14.22213 11.78506,19.56394 8.84818,2.89269 13.17845,7.99653 5.55758,17.12709 8.21879,3.22639 9.37009,11.26783 1.57579,15.48969 z"
       id="path4255"
       inkscape:connector-curvature="0"
       sodipodi:nodetypes="cccccccccccccccccccccccccccccccccccccccccccccccccc" />
    <path
       style="opacity:1;fill:#28170b;fill-opacity:1;fill-rule:evenodd;stroke:#000000;stroke-width:4;stroke-linecap:round;stroke-linejoin:round;stroke-miterlimit:4;stroke-dasharray:none;stroke-dashoffset:0;stroke-opacity:1"
       d="m 1562.5282,288.01573 64.6456,0 c -5.5404,238.2351 -17.7018,639.62465 10,750.43167 l -88.6456,0 c 24.9316,-77.56492 19.5404,-465.10358 14,-750.43167 z"
       id="rect4242"
       inkscape:connector-curvature="0"
       sodipodi:nodetypes="ccccc" />
    <path
       style="fill:#008000;fill-rule:evenodd;stroke:#000000;stroke-width:5;stroke-linecap:round;stroke-linejoin:round;stroke-miterlimit:4;stroke-dasharray:none;stroke-opacity:1"
       d="m 0,1012.4219 0,120.4668 m 0,0 c 0,0 1708.3182,-7.3966 1854.1318,-9.0176 0,0 2178.0628,-10.4352 2183.9392,-17.291 l 0,-94.1581 c -4.225,-29.99916 -12.4694,-54.71302 -12.4694,-54.71302 l -23.5059,59.74412 -14.6895,-59.74412 -27.4238,58.76562 -11.7539,-62.68163 -41.1347,74.43363 -22.5254,-70.51762 -40.1563,70.51762 -28.4023,-58.76371 -26.4434,52.88871 -14.6914,-63.66215 -28.4023,71.49605 -26.4454,-71.49605 -21.5468,62.68165 -24.4844,-66.59962 -28.4023,67.58012 -25.4649,-70.51762 -36.2383,65.61912 -27.4238,-61.70115 -44.0723,56.80465 -15.6699,-51.90816 -21.5488,69.53706 -25.4629,-75.41402 -31.3418,54.84762 -26.4434,-50.92965 -30.3613,57.78515 -15.6719,-63.6621 -31.3398,58.7637 -14.6914,-54.84573 -21.5469,58.76363 -28.4023,-58.76363 -34.2793,59.74413 -19.5879,-55.82616 -27.4239,55.82616 -20.5683,-52.88866 -25.4629,53.86716 -14.6914,-53.86716 -31.3418,53.86716 -21.5469,-53.86716 -29.3808,52.88866 -15.6719,-50.92968 -24.4844,51.90818 -20.5684,-57.78513 -24.4843,52.88863 -30.3614,-56.80465 -31.3417,63.66015 -14.6915,-51.90819 -23.5058,49.94919 -20.5664,-54.84568 -30.3613,46.03128 -23.5059,-55.8262 -32.3203,62.6816 -25.4649,-56.80465 -31.3418,53.86715 -3.916,-67.57808 -28.4043,65.61918 -17.6289,-52.88872 -21.5469,57.78512 -18.6093,-65.6191 -31.3399,62.6816 -6.8554,-59.7441 -42.1153,50.9297 -12.7324,-61.70314 -32.3203,68.55864 -17.6289,-66.59965 -24.4844,79.33205 -22.5273,-66.59963 -25.4649,59.74413 -16.6484,-49.94921 -25.4649,53.86721 -17.6289,-50.92971 -30.3633,47.01171 -22.5253,-55.82616 -14.6914,51.90816 -19.5879,-36.23824 -30.3614,19.58789 -9.7949,-27.42383 -18.6074,47.01168 -19.5879,-44.07222 -29.3828,39.17582 -11.7539,-50.92973 -36.2363,37.21875 -1.959,-39.17774 -24.4864,46.03322 -17.1396,-31.83106 -25.2217,38.54296 -12.4863,-42.10644 -27.4219,58.76364 -11.7539,-62.68161 -41.1348,74.43551 -22.5254,-70.51754 -40.1562,70.51754 -28.4023,-58.76364 -26.4454,52.88674 -14.6894,-63.66018 -28.4043,71.49608 -26.4434,-71.49608 -21.5468,62.68168 -24.4844,-66.59964 -28.4024,67.57814 -25.4648,-70.5176 -36.2383,65.6211 -27.4238,-61.70313 -44.0723,56.80663 -15.6719,-51.91014 -21.5468,69.53904 -25.4649,-75.41404 -31.3398,54.84574 -26.4434,-50.92778 -30.3633,57.78318 -15.6699,-63.66013 -31.3398,58.76363 -14.6914,-54.84566 -21.5469,58.76366 -28.4023,-58.76366 -34.2793,59.74216 -19.5879,-55.82614 -27.4239,55.82614 -20.5683,-52.88669 -25.4649,53.86719 -14.6894,-53.86719 -31.3418,53.86719 -21.5469,-53.86719 -29.3828,52.88669 -15.6699,-50.92771 -24.4844,51.90821 -20.56836,-57.78516 -24.48438,52.88866 -30.36133,-56.80663 -31.34179,63.66213 -14.69141,-51.90822 -23.50586,49.94922 -20.5664,-54.84766 -30.36133,46.03316 -23.50586,-55.82613 -32.32031,62.68163 -25.46485,-56.80468 -31.3418,53.86718 -3.91796,-67.58007 -28.40235,65.62107 -17.6289,-52.88864 -21.54688,57.78514 -18.60937,-65.62108 -31.33985,62.68358 -6.85547,-59.74413 -42.11523,50.92973 -12.73242,-61.70317 -32.32031,68.55857 -17.62891,-66.59958 -24.48633,79.33208 -22.52539,-66.59966 -25.46484,59.74216 -16.65039,-49.94919 -25.4629,53.86719 -17.63085,-50.92774 -30.36133,47.00974 -22.52539,-55.82614 -14.69141,51.91014 -19.58789,-36.23827 -30.36133,19.58787 -9.79492,-27.42381 -18.60938,47.01171 -19.58789,-44.07421 -29.38085,39.17771 -11.75391,-50.92966 -36.238282,37.21676 -1.957032,-39.17574 -24.486328,46.03324 -8.814453,-36.23832 -9.794922,42.11332 L 16.896484,986.95703 0,1012.4219"
       id="path4225"
       inkscape:connector-curvature="0"
       sodipodi:nodetypes="cccccccccccccccccccccccccccccccccccccccccccccccccccccccccccccccccccccccccccccccccccccccccccccccccccccccccccccccccccccccccccccccccccccccccccccccccccccccccccccccccccccccccccccccccc" />
    <path
       style="fill:#d35f5f;fill-rule:evenodd;stroke:#000000;stroke-width:4;stroke-linecap:butt;stroke-linejoin:miter;stroke-opacity:1;stroke-miterlimit:4;stroke-dasharray:none"
       d="m 1592.851,320.97188 c 82.5136,34.27487 119.6984,114.03441 187.0971,211.3402 52.1653,-152.77385 -140.0095,-254.7432 -140.0095,-254.7432 118.0579,43.16095 272.5154,51.38541 272.5154,51.38541 -25.3888,-79.9747 -285.2098,-116.60019 -285.2098,-116.60019 93.9386,-49.50815 273.1984,15.57215 273.1984,15.57215 -161.2188,-170.104915 -326.9829,-20.53157 -326.9829,-20.53157 -78.7052,-152.33276 -266.9804,43.61817 -266.9804,43.61817 0,0 216.0792,-63.80548 219.8875,3.47482 -139.6384,6.3472 -202.9168,42.2519 -202.9168,139.99876 69.8192,-76.16639 187.3231,-89.43633 187.3231,-89.43633 -167.566,107.90237 -35.5524,204.17808 -35.5524,204.17808 34.6272,-189.75703 117.6303,-188.2563 117.6303,-188.2563 z"
       id="path4245"
       inkscape:connector-curvature="0"
       sodipodi:nodetypes="ccccccccccccc" />
    <path
       style="opacity:1;fill:#008000;fill-opacity:1;fill-rule:evenodd;stroke:none;stroke-width:4;stroke-linecap:round;stroke-linejoin:round;stroke-miterlimit:4;stroke-dasharray:none;stroke-dashoffset:0;stroke-opacity:1"
       d="M -36.941406 1013.6211 L -36.941406 1129.6406 L 36.365234 1129.6406 L 36.365234 1052.623 L 24.820312 1048.2539 L 11.332031 1013.6211 L -36.941406 1013.6211 z "
       id="rect4261" />
    <path
       sodipodi:nodetypes="ccccccccccccc"
       inkscape:connector-curvature="0"
       id="path4269"
       d="m 3073.136,481.70263 c -82.5136,34.27487 -119.6984,114.03441 -187.0971,211.3402 -52.1653,-152.77385 140.0095,-254.7432 140.0095,-254.7432 -118.0579,43.16095 -272.5154,51.38541 -272.5154,51.38541 25.3888,-79.9747 285.2098,-116.60019 285.2098,-116.60019 -93.9386,-49.50815 -273.1984,15.57215 -273.1984,15.57215 161.2188,-170.10492 326.9829,-20.53157 326.9829,-20.53157 78.7052,-152.33276 266.9804,43.61817 266.9804,43.61817 0,0 -216.0792,-63.80548 -219.8875,3.47482 139.6384,6.3472 202.9168,42.2519 202.9168,139.99876 -69.8192,-76.16639 -187.3231,-89.43633 -187.3231,-89.43633 167.566,107.90237 35.5524,204.17808 35.5524,204.17808 C 3156.1391,480.2019 3073.136,481.70263 3073.136,481.70263 Z"
       style="fill:#b3b3b3;fill-rule:evenodd;stroke:#000000;stroke-width:4;stroke-linecap:butt;stroke-linejoin:miter;stroke-miterlimit:4;stroke-dasharray:none;stroke-opacity:1" />
  </g>
</svg>
