<?xml version="1.0" encoding="UTF-8" standalone="no"?>
<!-- Created with Inkscape (http://www.inkscape.org/) -->

<svg
   xmlns:dc="http://purl.org/dc/elements/1.1/"
   xmlns:cc="http://creativecommons.org/ns#"
   xmlns:rdf="http://www.w3.org/1999/02/22-rdf-syntax-ns#"
   xmlns:svg="http://www.w3.org/2000/svg"
   xmlns="http://www.w3.org/2000/svg"
   xmlns:sodipodi="http://sodipodi.sourceforge.net/DTD/sodipodi-0.dtd"
   xmlns:inkscape="http://www.inkscape.org/namespaces/inkscape"
   width="1920"
   height="1080"
   viewBox="0 0 1920 1080"
   id="svg2"
   version="1.1"
   inkscape:version="0.91 r13725"
   sodipodi:docname="elephant.svg">
  <defs
     id="defs4" />
  <sodipodi:namedview
     id="base"
     pagecolor="#ffffff"
     bordercolor="#666666"
     borderopacity="1.0"
     inkscape:pageopacity="0.0"
     inkscape:pageshadow="2"
     inkscape:zoom="0.32462377"
     inkscape:cx="1060.2081"
     inkscape:cy="408.84509"
     inkscape:document-units="px"
     inkscape:current-layer="layer12"
     showgrid="false"
     units="px"
     inkscape:window-width="1366"
     inkscape:window-height="704"
     inkscape:window-x="0"
     inkscape:window-y="27"
     inkscape:window-maximized="1"
     showguides="true"
     inkscape:guide-bbox="true" />
  <metadata
     id="metadata7">
    <rdf:RDF>
      <cc:Work
         rdf:about="">
        <dc:format>image/svg+xml</dc:format>
        <dc:type
           rdf:resource="http://purl.org/dc/dcmitype/StillImage" />
        <dc:title></dc:title>
      </cc:Work>
    </rdf:RDF>
  </metadata>
  <g
     inkscape:groupmode="layer"
     id="layer3"
     inkscape:label="static-background"
     style="display:inline">
    <rect
       style="display:inline;opacity:1;fill:#aaaaff;fill-opacity:1;fill-rule:evenodd;stroke:none;stroke-width:5;stroke-linecap:round;stroke-linejoin:round;stroke-miterlimit:4;stroke-dasharray:none;stroke-dashoffset:0;stroke-opacity:1"
       id="rect4227"
       width="2085.9421"
       height="1074.8281"
       x="-71.757896"
       y="-47.194809" />
    <rect
       style="display:inline;opacity:1;fill:#502d16;fill-opacity:1;fill-rule:evenodd;stroke:none;stroke-width:8;stroke-linecap:round;stroke-linejoin:round;stroke-miterlimit:4;stroke-dasharray:none;stroke-dashoffset:0;stroke-opacity:1"
       id="rect4223"
       width="2136.8225"
       height="290.77014"
       x="-133.1597"
       y="766.34595" />
  </g>
  <g
     inkscape:groupmode="layer"
     id="layer6"
     inkscape:label="mezground"
     style="display:inline">
    <path
       id="path4358"
       d="m 1041.06,67.027379 142.1153,216.861331 c 3.0802,191.15469 2.0679,328.20394 -17.1836,388.09765 l 87.9648,0 C 1231.9708,584.04333 1235.313,426.77317 1240.3354,246.5391 l 91.1153,-110.85742 -6.4942,-21.3379 -83.6719,98.04102 c 0.9638,-34.28796 1.9242,-69.03919 2.7481,-104.4668 l -13.2598,0 -7.8711,96.41993 -23.164,-96.41993 -19.8535,0 c 0.8257,42.52644 1.6339,83.02236 2.3515,121.81446 l -104.0644,-162.705081 -37.1114,0 z"
       style="display:inline;opacity:1;fill:#28170b;fill-opacity:1;fill-rule:evenodd;stroke:#000000;stroke-width:3.96929526;stroke-linecap:round;stroke-linejoin:round;stroke-miterlimit:4;stroke-dasharray:none;stroke-dashoffset:0;stroke-opacity:1"
       inkscape:connector-curvature="0" />
    <path
       sodipodi:nodetypes="cccccccccccccccccccccccc"
       inkscape:connector-curvature="0"
       id="path4360"
       d="m 1474.1262,86.697586 c 28.7817,-9.182765 -61.1715,-43.815801 -5.7332,-46.12667 66.2174,-1.192381 -21.9362,-33.7941162 -44.0593,-34.2134802 -19.1702,-6.96876765 66.4206,-14.455778 12.3762,-20.7050858 -24.4723,-4.466173 -70.3944,-5.238833 -59.5259,-9.566191 -22.4892,1.256658 -36.5241,-19.616902 -70.4024,-12.093568 -31.988,19.135439 -60.3225,26.6471258 -73.5208,30.8014599 -27.09,-0.4371759 -46.3546,-10.1919379 -77.5031,-8.4926559 -24.5596,4.9164188 -109.9299,25.797698 -100.1037,28.112825 49.1324,11.687313 -27.1888,4.421473 -39.8637,19.758227 -14.5663,9.030795 89.9233,14.027514 49.9493,15.069652 -24.4968,-1.529361 -78.37657,22.267315 -31.3157,28.549387 -21.9799,13.951792 -128.98157,46.918174 -61.22967,49.597764 44.41357,2.81353 -37.9248,25.50057 15.8606,44.16832 12.10857,5.11907 58.47457,-1.63442 30.14457,9.59821 11.2853,25.25846 24.3632,22.23555 47.7208,5.41597 -21.3216,-7.37884 44.5022,4.16149 38.5013,-32.91611 25.5734,-1.66108 98.5474,31.19289 72.3872,21.5034 25.7566,-11.14695 91.0637,-11.58033 93.5079,-1.75401 18.1701,-5.70187 99.9285,29.64137 79.0008,3.86532 23.2738,-7.28139 65.3011,4.93058 73.3457,-9.97108 -51.5361,-25.89537 24.3167,-18.14868 44.4774,-10.70216 2.3453,1.46073 4.7508,-31.64461 -14.8724,-36.17735 -23.1092,-17.26138 -24.6692,-38.618799 20.8581,-33.722174 z"
       style="fill:#338000;fill-rule:evenodd;stroke:#000000;stroke-width:10.2293272;stroke-linecap:round;stroke-linejoin:round;stroke-miterlimit:4;stroke-dasharray:none;stroke-opacity:1" />
    <path
       sodipodi:nodetypes="ccccc"
       inkscape:connector-curvature="0"
       id="path4354"
       d="m 2582.7652,202.71822 67.5791,0 c -5.7918,249.04585 -18.505,478.39097 10.4538,594.2263 l -92.6682,0 c 26.063,-81.08475 20.4271,-295.95044 14.6353,-594.2263 z"
       style="display:inline;opacity:1;fill:#28170b;fill-opacity:1;fill-rule:evenodd;stroke:#000000;stroke-width:4.18151379;stroke-linecap:round;stroke-linejoin:round;stroke-miterlimit:4;stroke-dasharray:none;stroke-dashoffset:0;stroke-opacity:1" />
    <path
       sodipodi:nodetypes="ccccccccccccc"
       inkscape:connector-curvature="0"
       id="path4356"
       d="m 2638.2794,221.76225 c 86.258,35.83021 125.1301,119.20913 195.5873,220.9305 54.5325,-159.70649 -146.363,-266.30306 -146.363,-266.30306 123.4153,45.11953 284.8817,53.7172 284.8817,53.7172 -26.5408,-83.60383 -298.1521,-121.89133 -298.1521,-121.89133 98.2014,-51.754752 285.5958,16.2788 285.5958,16.2788 -168.5347,-177.824027 -341.821,-21.46327 -341.821,-21.46327 -82.2767,-159.245384 -279.0955,45.5975 -279.0955,45.5975 0,0 225.8845,-66.700879 229.8656,3.6325 -145.9749,6.63522 -212.1249,44.16922 -212.1249,146.35169 72.9876,-79.6227 195.8236,-93.49481 195.8236,-93.49481 -175.1698,112.79882 -37.1657,213.44337 -37.1657,213.44337 36.1985,-198.36792 122.9682,-196.79909 122.9682,-196.79909 z"
       style="display:inline;fill:#de8787;fill-rule:evenodd;stroke:#000000;stroke-width:4.18151379;stroke-linecap:butt;stroke-linejoin:miter;stroke-miterlimit:4;stroke-dasharray:none;stroke-opacity:1" />
    <path
       style="display:inline;opacity:1;fill:#28170b;fill-opacity:1;fill-rule:evenodd;stroke:#000000;stroke-width:3.96929526;stroke-linecap:round;stroke-linejoin:round;stroke-miterlimit:4;stroke-dasharray:none;stroke-dashoffset:0;stroke-opacity:1"
       d="M 139.16406 161.51172 L 281.2793 378.37305 C 284.35957 569.52774 283.34724 706.57699 264.0957 766.4707 L 352.06055 766.4707 C 330.07481 678.52767 333.41706 521.25751 338.43945 341.02344 L 429.55469 230.16602 L 423.06055 208.82812 L 339.38867 306.86914 C 340.35242 272.58118 341.31281 237.82995 342.13672 202.40234 L 328.87695 202.40234 L 321.00586 298.82227 L 297.8418 202.40234 L 277.98828 202.40234 C 278.81405 244.92878 279.62221 285.4247 280.33984 324.2168 L 176.27539 161.51172 L 139.16406 161.51172 z "
       id="path4333" />
    <path
       style="fill:#0b280b;fill-rule:evenodd;stroke:#000000;stroke-width:8;stroke-linecap:butt;stroke-linejoin:miter;stroke-miterlimit:4;stroke-dasharray:none;stroke-opacity:1"
       d="m 379.09053,366.69336 c -19.70743,-0.0973 -38.32694,8.17592 -45.68945,27.98633 -19.75919,39.22469 -61.30264,11.18644 -84.12696,-8.24414 -33.37728,-29.5536 -60.60457,12.14468 -93.34179,17.98633 -36.2142,14.93157 -83.315834,42.03976 -77.541025,87.83789 -20.725528,47.61608 -62.491573,85.1978 -72.9296875,137.48046 -16.7819185,96.94915 71.4431775,138.6443 167.7500025,137.15625 33.48718,-6.08521 64.06872,-6.87361 96.49219,5.79297 125.38826,26.77407 254.55718,4.23313 381.6875,-1.61718 45.22393,-1.82872 102.87327,4.24021 144.7207,2.1582 37.25991,12.73746 120.23357,0.98239 180.85157,3.43359 127.13032,5.85031 256.29922,28.39126 381.68742,1.61719 32.4235,-12.66658 63.005,-11.87818 96.4922,-5.79297 7.0696,0.10924 14.0929,-0.0219 21.0371,-0.38281 31.9341,27.51602 82.6145,15.85643 135.7676,15.03515 33.4872,-6.08521 64.0687,-6.87361 96.4922,5.79297 125.3882,26.77407 254.5571,4.23313 381.6875,-1.61718 60.618,-2.4512 143.5916,9.30386 180.8515,-3.4336 41.8475,2.08201 99.4968,-3.98692 144.7207,-2.1582 127.1304,5.85031 256.2993,28.39126 381.6875,1.61719 32.4235,-12.66658 63.005,-11.87818 96.4922,-5.79297 96.3068,1.48805 184.5319,-40.2071 167.75,-137.15625 -10.4381,-52.28266 -52.2041,-89.86439 -72.9297,-137.48047 5.7748,-45.79813 -41.3268,-72.90632 -77.541,-87.83789 -32.7372,-5.84164 -59.9645,-47.53993 -93.3418,-17.98633 -22.8243,19.43058 -64.3677,47.46883 -84.1269,8.24414 -7.3625,-19.81041 -25.9821,-28.08363 -45.6895,-27.98633 -17.3889,0.0858 -35.6245,6.68905 -47.7168,17.63282 -30.1314,24.19349 -68.0507,62.30049 -109.5429,38.82031 -23.8623,-26.02337 -64.0418,-14.88981 -75.4336,17.56055 -24.4448,35.64914 -37.5227,-37.24071 -71.918,-23.98047 -46.7211,1.3223 -61.7592,53.61016 -89.75,82.0039 -11.7852,21.40026 -41.594,10.30777 -75.5176,-6.24609 -33.9237,-16.55386 -48.9625,-68.84176 -95.6836,-70.16406 -34.3953,-13.26024 -47.4732,59.62765 -71.918,23.97851 -11.3917,-32.45035 -51.5713,-43.58391 -75.4335,-17.56055 -41.4923,23.48019 -79.4115,-14.62682 -109.543,-38.82031 -25.7969,-23.34672 -79.5474,-26.93665 -93.4063,10.35352 -19.7592,39.22469 -61.3007,11.18644 -84.125,-8.24414 -33.3773,-29.5536 -60.6065,12.14665 -93.3437,17.98828 -15.1649,6.25268 -32.2264,38.65129 -46.5274,49.65234 -9.4567,-31.87445 -46.2021,-52.13462 -75.7187,-64.30469 -32.7372,-5.84163 -59.9665,-47.54188 -93.3438,-17.98828 -22.8243,19.43058 -64.3658,47.46883 -84.125,8.24414 -13.8589,-37.29017 -67.6093,-33.70023 -93.4062,-10.35351 -30.1315,24.19349 -68.0507,62.30049 -109.543,38.82031 -23.8622,-26.02337 -64.0418,-14.8898 -75.4335,17.56055 -24.4448,35.64914 -37.52267,-37.23876 -71.91797,-23.97852 -46.7211,1.3223 -61.75992,53.6102 -95.68359,70.16407 -33.92366,16.55385 -63.73236,27.64635 -75.51758,6.24609 -27.99078,-28.39374 -43.02893,-80.68161 -89.75,-82.00391 -34.39532,-13.26024 -47.47319,59.62961 -71.91797,23.98047 -11.39185,-32.45035 -51.57145,-43.58392 -75.4336,-17.56055 -41.49232,23.48018 -79.4115,-14.62682 -109.54296,-38.82031 -12.0923,-10.94377 -30.32789,-17.54698 -47.7168,-17.63281 z"
       id="path4286"
       inkscape:connector-curvature="0"
       sodipodi:nodetypes="scccccccccccccccccccccccccscccccscccccccccccccccscccccs" />
    <path
       style="display:inline;opacity:1;fill:#28170b;fill-opacity:1;fill-rule:evenodd;stroke:#000000;stroke-width:4.18151379;stroke-linecap:round;stroke-linejoin:round;stroke-miterlimit:4;stroke-dasharray:none;stroke-dashoffset:0;stroke-opacity:1"
       d="m 1719.5219,202.71822 67.5791,0 c -5.7918,249.04585 -18.505,478.39097 10.4538,594.2263 l -92.6682,0 c 26.063,-81.08475 20.4271,-295.95044 14.6353,-594.2263 z"
       id="path4316"
       inkscape:connector-curvature="0"
       sodipodi:nodetypes="ccccc" />
    <path
       style="display:inline;fill:#b3b3b3;fill-rule:evenodd;stroke:#000000;stroke-width:4.18151379;stroke-linecap:butt;stroke-linejoin:miter;stroke-miterlimit:4;stroke-dasharray:none;stroke-opacity:1"
       d="m 1745.5841,221.76225 c -86.258,35.83021 -125.1301,119.20913 -195.5873,220.9305 -54.5325,-159.70649 146.363,-266.30306 146.363,-266.30306 -123.4153,45.11953 -284.8817,53.7172 -284.8817,53.7172 26.5408,-83.60383 298.1521,-121.89133 298.1521,-121.89133 -98.2014,-51.754752 -285.5958,16.2788 -285.5958,16.2788 168.5347,-177.824027 341.821,-21.46327 341.821,-21.46327 82.2767,-159.245384 279.0955,45.5975 279.0955,45.5975 0,0 -225.8845,-66.700879 -229.8656,3.6325 145.9749,6.63522 212.1249,44.16922 212.1249,146.35169 -72.9876,-79.6227 -195.8236,-93.49481 -195.8236,-93.49481 175.1698,112.79882 37.1657,213.44337 37.1657,213.44337 -36.1985,-198.36792 -122.9682,-196.79909 -122.9682,-196.79909 z"
       id="path4318"
       inkscape:connector-curvature="0"
       sodipodi:nodetypes="ccccccccccccc" />
    <path
       style="fill:#338000;fill-rule:evenodd;stroke:#000000;stroke-width:8;stroke-linecap:round;stroke-linejoin:round;stroke-miterlimit:4;stroke-dasharray:none;stroke-opacity:1"
       d="m 114.03868,178.74441 c -22.509217,-7.18152 47.84011,-34.26681 4.48368,-36.07406 -51.786277,-0.93252 17.15558,-26.4292 34.45733,-26.75717 14.99225,-5.45003 -51.94527,-11.30536 -9.67902,-16.192726 19.13883,-3.492838 55.05297,-4.097108 46.55307,-7.481384 17.588,0.982788 28.56422,-15.341695 55.05928,-9.457958 25.01675,14.96516 47.1761,20.839788 57.498,24.088748 21.18624,-0.3419 36.25236,-7.970759 60.61256,-6.64181 19.2072,3.84496 85.97231,20.17548 78.28754,21.98606 -38.42468,9.14024 21.2634,3.45788 31.17601,15.45222 11.3918,7.06267 -70.32588,10.97043 -39.06354,11.78545 19.15805,-1.19606 61.29558,17.41449 24.4909,22.32748 17.18969,10.91121 100.87198,36.69307 47.88557,38.78868 -34.73433,2.20037 29.65972,19.94311 -12.40402,34.54251 -9.46973,4.00344 -45.73094,-1.27823 -23.57496,7.50642 -8.82589,19.75376 -19.05366,17.38965 -37.32082,4.23564 16.67484,-5.77073 -34.80364,3.25456 -30.1105,-25.74254 -20.00016,-1.29907 -77.07051,24.39487 -56.61155,16.81706 -20.14341,-8.71764 -71.21772,-9.05657 -73.12928,-1.37175 -14.21019,-4.45923 -78.15056,23.18148 -61.78376,3.02293 -18.20159,-5.69452 -51.06975,3.85604 -57.36109,-7.79803 40.30461,-20.25187 -19.01728,-14.19345 -34.78425,-8.36979 -1.83415,1.14239 -3.71538,-24.74814 11.63121,-28.29304 18.07292,-13.49953 19.29292,-30.20242 -16.31236,-26.37294 z"
       id="path4345"
       inkscape:connector-curvature="0"
       sodipodi:nodetypes="cccccccccccccccccccccccc" />
  </g>
  <g
     inkscape:label="elephant3"
     inkscape:groupmode="layer"
     id="layer1"
     transform="translate(0,27.63784)"
     style="display:inline">
    <rect
       style="display:inline;opacity:1;fill:#333333;fill-opacity:1;fill-rule:evenodd;stroke:#000000;stroke-width:8;stroke-linecap:round;stroke-linejoin:round;stroke-miterlimit:4;stroke-dasharray:none;stroke-dashoffset:0;stroke-opacity:1"
       id="rect4144"
       width="74.979973"
       height="102.75034"
       x="-164.34917"
       y="935.05078"
       transform="matrix(-0.90011286,0.4356568,0.4356568,0.90011286,0,0)" />
    <rect
       transform="matrix(-0.92403501,0.38230787,0.38230787,0.92403501,0,0)"
       y="855.82684"
       x="-55.569412"
       height="102.75034"
       width="74.979973"
       id="rect4140"
       style="display:inline;opacity:1;fill:#333333;fill-opacity:1;fill-rule:evenodd;stroke:#000000;stroke-width:8;stroke-linecap:round;stroke-linejoin:round;stroke-miterlimit:4;stroke-dasharray:none;stroke-dashoffset:0;stroke-opacity:1"
       inkscape:transform-center-x="-9.868077"
       inkscape:transform-center-y="27.697007" />
    <path
       sodipodi:nodetypes="scccccccccccs"
       inkscape:connector-curvature="0"
       style="opacity:1;fill:#666666;fill-opacity:1;fill-rule:evenodd;stroke:none;stroke-width:8;stroke-linecap:round;stroke-linejoin:round;stroke-miterlimit:4;stroke-dasharray:none;stroke-dashoffset:0;stroke-opacity:1"
       d="m 426.64518,521.55949 c -97.39073,-10e-6 -176.34158,69.62578 -176.3418,155.51367 0.0707,42.08852 19.4828,82.35447 53.80274,111.60156 l -34.36586,76.3322 65.07011,29.63234 30.02214,-71.55092 c 15.36787,8.26145 53.52486,9.43739 61.81267,9.50044 25.29243,-0.0659 24.83316,-1.11057 24.83316,-1.11057 l -19.66129,41.29869 66.8632,30.23002 64.31649,-127.46306 C 588.819,747.7767 602.9487,712.9841 602.987,677.07316 602.9868,591.18526 524.03592,521.55947 426.64518,521.55949 Z"
       id="path4197" />
    <path
       style="display:inline;opacity:1;fill:#333333;fill-opacity:1;fill-rule:evenodd;stroke:none;stroke-width:8;stroke-linecap:round;stroke-linejoin:round;stroke-miterlimit:4;stroke-dasharray:none;stroke-dashoffset:0;stroke-opacity:1"
       d="m 255.84635,715.20792 a 176.34178,155.51402 0 0 0 170.79883,117.38086 176.34178,155.51402 0 0 0 103.82812,-30.04687 157.72487,123.26804 0 0 0 0.68164,-3.51563 205.46016,127.95509 14.370874 0 1 -136.80859,-3.25781 205.46016,127.95509 14.370874 0 1 -138.5,-80.56055 z"
       id="path4161"
       inkscape:connector-curvature="0" />
    <path
       id="path4174"
       d="m 426.64518,521.55949 c -97.39073,-10e-6 -176.34158,69.62578 -176.3418,155.51367 0.0707,42.08852 19.4828,82.35447 53.80274,111.60156 l -34.36586,76.3322 65.07011,29.63234 30.02214,-71.55092 c 15.36787,8.26145 53.52486,9.43739 61.81267,9.50044 25.29243,-0.0659 24.83316,-1.11057 24.83316,-1.11057 l -19.66129,41.29869 66.8632,30.23002 64.31649,-127.46306 C 588.819,747.7767 602.9487,712.9841 602.987,677.07316 602.9868,591.18526 524.03592,521.55947 426.64518,521.55949 Z"
       style="opacity:1;fill:none;fill-opacity:1;fill-rule:evenodd;stroke:#000000;stroke-width:8;stroke-linecap:round;stroke-linejoin:round;stroke-miterlimit:4;stroke-dasharray:none;stroke-dashoffset:0;stroke-opacity:1"
       inkscape:connector-curvature="0"
       sodipodi:nodetypes="scccccccccccs" />
  </g>
  <g
     style="display:inline"
     transform="translate(0,27.63784)"
     id="g4209"
     inkscape:groupmode="layer"
     inkscape:label="elephant2">
    <path
       id="path4221"
       d="m 426.64518,521.55949 c -97.39073,-10e-6 -176.34158,69.62578 -176.3418,155.51367 0.0707,42.08852 16.64444,82.35447 50.96438,111.60156 l 0,107.58486 62.23176,0 1.33299,-73.17124 c 15.36787,8.26145 53.52486,9.43739 61.81267,9.50044 25.29243,-0.0659 50.30383,-7.08748 50.30383,-7.08748 l -0.53519,70.75828 56.93248,0 0.58892,-89.76681 29.06152,-30.94891 C 588.819,747.7767 602.9487,712.9841 602.987,677.07316 602.9868,591.18526 524.03592,521.55947 426.64518,521.55949 Z"
       style="opacity:1;fill:#666666;fill-opacity:1;fill-rule:evenodd;stroke:#000000;stroke-width:8;stroke-linecap:round;stroke-linejoin:round;stroke-miterlimit:4;stroke-dasharray:none;stroke-dashoffset:0;stroke-opacity:1"
       inkscape:connector-curvature="0"
       sodipodi:nodetypes="sccccccccccccs" />
    <path
       inkscape:connector-curvature="0"
       id="path4217"
       d="m 255.84635,715.20792 a 176.34178,155.51402 0 0 0 170.79883,117.38086 176.34178,155.51402 0 0 0 103.82812,-30.04687 157.72487,123.26804 0 0 0 0.68164,-3.51563 205.46016,127.95509 14.370874 0 1 -136.80859,-3.25781 205.46016,127.95509 14.370874 0 1 -138.5,-80.56055 z"
       style="display:inline;opacity:1;fill:#333333;fill-opacity:1;fill-rule:evenodd;stroke:none;stroke-width:8;stroke-linecap:round;stroke-linejoin:round;stroke-miterlimit:4;stroke-dasharray:none;stroke-dashoffset:0;stroke-opacity:1" />
    <path
       sodipodi:nodetypes="sccccccccccccs"
       inkscape:connector-curvature="0"
       style="opacity:1;fill:none;fill-opacity:1;fill-rule:evenodd;stroke:#000000;stroke-width:8;stroke-linecap:round;stroke-linejoin:round;stroke-miterlimit:4;stroke-dasharray:none;stroke-dashoffset:0;stroke-opacity:1"
       d="m 426.64518,521.55949 c -97.39073,-10e-6 -176.34158,69.62578 -176.3418,155.51367 0.0707,42.08852 16.64444,82.35447 50.96438,111.60156 l 0,107.58486 62.23176,0 1.33299,-73.17124 c 15.36787,8.26145 53.52486,9.43739 61.81267,9.50044 25.29243,-0.0659 50.30383,-7.08748 50.30383,-7.08748 l -0.53519,70.75828 56.93248,0 0.58892,-89.76681 29.06152,-30.94891 C 588.819,747.7767 602.9487,712.9841 602.987,677.07316 602.9868,591.18526 524.03592,521.55947 426.64518,521.55949 Z"
       id="path4219" />
  </g>
  <g
     inkscape:groupmode="layer"
     id="layer2"
     inkscape:label="elephant1"
     style="display:inline">
    <rect
       transform="matrix(-0.91567213,-0.40192605,-0.40192605,0.91567213,0,0)"
       y="547.35529"
       x="-831.65839"
       height="102.75034"
       width="74.979973"
       id="rect4199"
       style="display:inline;opacity:1;fill:#333333;fill-opacity:1;fill-rule:evenodd;stroke:#000000;stroke-width:8;stroke-linecap:round;stroke-linejoin:round;stroke-miterlimit:4;stroke-dasharray:none;stroke-dashoffset:0;stroke-opacity:1" />
    <rect
       style="display:inline;opacity:1;fill:#333333;fill-opacity:1;fill-rule:evenodd;stroke:#000000;stroke-width:8;stroke-linecap:round;stroke-linejoin:round;stroke-miterlimit:4;stroke-dasharray:none;stroke-dashoffset:0;stroke-opacity:1"
       id="rect4201"
       width="74.979973"
       height="102.75034"
       x="-679.11652"
       y="607.95148"
       transform="matrix(-0.91567213,-0.40192605,-0.40192605,0.91567213,0,0)" />
    <path
       inkscape:connector-curvature="0"
       id="path4186"
       d="M 426.64518,549.19733 A 176.34178,155.51402 0 0 0 250.30338,704.711 176.34178,155.51402 0 0 0 304.10612,816.31256 l 44.52929,107.41211 68.65625,-30.13672 -15.40234,-35.09179 a 176.34178,155.51402 0 0 0 24.75586,1.73046 176.34178,155.51402 0 0 0 73.24609,-14.25976 l 34.13086,77.75781 68.65627,-30.13672 -39.68166,-90.40625 A 176.34178,155.51402 0 0 0 602.987,704.711 176.34178,155.51402 0 0 0 426.64518,549.19733 Z"
       style="opacity:1;fill:#666666;fill-opacity:1;fill-rule:evenodd;stroke:none;stroke-width:8;stroke-linecap:round;stroke-linejoin:round;stroke-miterlimit:4;stroke-dasharray:none;stroke-dashoffset:0;stroke-opacity:1" />
    <path
       inkscape:connector-curvature="0"
       id="path4190"
       d="m 255.84635,742.84576 a 176.34178,155.51402 0 0 0 170.79883,117.38086 176.34178,155.51402 0 0 0 103.82812,-30.04687 157.72487,123.26804 0 0 0 0.68164,-3.51563 205.46016,127.95509 14.370874 0 1 -136.80859,-3.25781 205.46016,127.95509 14.370874 0 1 -138.5,-80.56055 z"
       style="display:inline;opacity:1;fill:#333333;fill-opacity:1;fill-rule:evenodd;stroke:none;stroke-width:8;stroke-linecap:round;stroke-linejoin:round;stroke-miterlimit:4;stroke-dasharray:none;stroke-dashoffset:0;stroke-opacity:1" />
    <path
       style="opacity:1;fill:none;fill-opacity:1;fill-rule:evenodd;stroke:#000000;stroke-width:8;stroke-linecap:round;stroke-linejoin:round;stroke-miterlimit:4;stroke-dasharray:none;stroke-dashoffset:0;stroke-opacity:1"
       d="M 426.64518,549.19733 A 176.34178,155.51402 0 0 0 250.30338,704.711 176.34178,155.51402 0 0 0 304.10612,816.31256 l 44.52929,107.41211 68.65625,-30.13672 -15.40234,-35.09179 a 176.34178,155.51402 0 0 0 24.75586,1.73046 176.34178,155.51402 0 0 0 73.24609,-14.25976 l 34.13086,77.75781 68.65627,-30.13672 -39.68166,-90.40625 A 176.34178,155.51402 0 0 0 602.987,704.711 176.34178,155.51402 0 0 0 426.64518,549.19733 Z"
       id="path4193"
       inkscape:connector-curvature="0" />
  </g>
  <g
     inkscape:groupmode="layer"
     id="layer4"
     inkscape:label="elephant-head"
     style="display:inline"
     transform="translate(0,312)">
    <path
       style="opacity:1;fill:#666666;fill-opacity:1;fill-rule:evenodd;stroke:#000000;stroke-width:8;stroke-linecap:round;stroke-linejoin:round;stroke-miterlimit:4;stroke-dasharray:none;stroke-dashoffset:0;stroke-opacity:1"
       d="m 662.6696,148.90631 c -4.032,0.0653 -8.1374,0.6732 -12.3125,1.88477 -17.0948,4.96073 -18.4919,38.53483 -17.6172,59.73632 a 111.13535,94.149612 0 0 0 -44.42967,-7.9746 111.13535,94.149612 0 0 0 -107.084,68.96484 c -12.8219,-6.66465 -51.2917,-24.66943 -67.1406,-9.75781 -40.5275,38.1309 9.9721,116.84492 43.6778,161.12109 16.1662,21.23625 46.7971,55.70447 68.914,40.76563 25.2753,-17.07216 25.2117,-57.01707 23.0762,-78.71094 a 111.13535,94.149612 0 0 0 38.5566,5.91601 111.13535,94.149612 0 0 0 2.2403,-0.0664 c 10.41317,14.94168 21.46007,32.42246 26.39447,45.68554 5.6958,15.30947 9.316,32.39066 6.793,48.5293 -3.1069,19.87269 -26.20707,54.35547 -26.20707,54.35547 0,15.52983 15.53067,29.11868 30.08987,24.26563 0,0 31.0827,-40.06153 35.9121,-64.06055 4.4969,-22.34712 -7.0363,-45.15988 -7.7637,-67.94336 -0.5389,-16.88019 1.2619,-44.52729 2.5899,-61.88477 a 111.13535,94.149612 0 0 0 32.8847,-37.625 c 16.9646,12.52639 48.8039,31.06174 75.7031,18.28907 24.1095,-11.44803 10.0031,-55.34973 -0.062,-80.06836 C 747.5384,222.81777 710.2476,148.13551 662.6701,148.90631 Z"
       id="path4176"
       inkscape:connector-curvature="0" />
    <ellipse
       style="opacity:1;fill:#000000;fill-opacity:1;fill-rule:evenodd;stroke:none;stroke-width:4;stroke-linecap:round;stroke-linejoin:round;stroke-miterlimit:4;stroke-dasharray:none;stroke-dashoffset:0;stroke-opacity:1"
       id="path4185"
       cx="582.76343"
       cy="310.32663"
       rx="8.1788216"
       ry="9.6085939" />
    <ellipse
       ry="9.6085939"
       rx="8.1788216"
       cy="297.53452"
       cx="630.05542"
       id="ellipse4187"
       style="opacity:1;fill:#000000;fill-opacity:1;fill-rule:evenodd;stroke:none;stroke-width:4;stroke-linecap:round;stroke-linejoin:round;stroke-miterlimit:4;stroke-dasharray:none;stroke-dashoffset:0;stroke-opacity:1" />
  </g>
  <g
     inkscape:groupmode="layer"
     id="layer9"
     inkscape:label="rhino-tail"
     style="display:inline">
    <path
       style="color:#000000;font-style:normal;font-variant:normal;font-weight:normal;font-stretch:normal;font-size:medium;line-height:normal;font-family:sans-serif;text-indent:0;text-align:start;text-decoration:none;text-decoration-line:none;text-decoration-style:solid;text-decoration-color:#000000;letter-spacing:normal;word-spacing:normal;text-transform:none;direction:ltr;block-progression:tb;writing-mode:lr-tb;baseline-shift:baseline;text-anchor:start;white-space:normal;clip-rule:nonzero;display:inline;overflow:visible;visibility:visible;opacity:1;isolation:auto;mix-blend-mode:normal;color-interpolation:sRGB;color-interpolation-filters:linearRGB;solid-color:#000000;solid-opacity:1;fill:#b3b3b3;fill-opacity:1;fill-rule:evenodd;stroke:#000000;stroke-width:4;stroke-linecap:round;stroke-linejoin:round;stroke-miterlimit:4;stroke-dasharray:none;stroke-dashoffset:0;stroke-opacity:1;color-rendering:auto;image-rendering:auto;shape-rendering:auto;text-rendering:auto;enable-background:accumulate"
       d="m 1481.1289,427.9043 c -31.1816,-0.97663 -58.1672,9.20114 -80.6953,25.34961 -25.7464,18.45539 -45.8959,44.54496 -61.4668,71.02539 -31.1418,52.96086 -44.1133,108.03711 -44.1133,108.03711 a 6.0006,6.0006 0 1 0 11.6777,2.76171 c 0,0 12.7461,-53.63785 42.7813,-104.71679 15.0176,-25.53947 34.3219,-50.30094 58.1113,-67.35352 23.7894,-17.05257 51.837,-26.56265 85.7559,-22.08984 a 6.0006,6.0006 0 1 0 1.5703,-11.89649 c -4.625,-0.60988 -9.1666,-0.97767 -13.6211,-1.11718 z"
       id="path4452"
       inkscape:connector-curvature="0" />
  </g>
  <g
     inkscape:groupmode="layer"
     id="layer8"
     inkscape:label="rhino"
     style="display:inline">
    <path
       style="opacity:1;fill:#666666;fill-opacity:1;fill-rule:evenodd;stroke:#000000;stroke-width:8;stroke-linecap:round;stroke-linejoin:round;stroke-miterlimit:4;stroke-dasharray:none;stroke-dashoffset:0;stroke-opacity:1"
       d="m 1786.2949,714.24609 -12.3672,26.41993 c 7.2215,-0.77469 14.2635,-1.67695 21.1075,-2.72461 l 0,108.60937 93.9531,0 c 0,0 -25.3226,-67.14063 -10.0235,-117.85156 l -92.6699,-14.45313 z"
       id="path4416"
       inkscape:connector-curvature="0" />
    <path
       style="opacity:1;fill:#666666;fill-opacity:1;fill-rule:evenodd;stroke:#000000;stroke-width:8;stroke-linecap:round;stroke-linejoin:round;stroke-miterlimit:4;stroke-dasharray:none;stroke-dashoffset:0;stroke-opacity:1"
       d="m 1582.3887,606.92578 -121.043,42.67969 c 8.3409,32.06339 22.1871,58.84542 39.043,79.66211 l 0,119.0293 106.8398,0 c 0,0 -11.2082,-57.03891 0,-96.26758 16.6737,-19.62796 39.4409,-37.74555 57.707,-67.09961 l -82.5468,-78.00391 z"
       id="path4411"
       inkscape:connector-curvature="0" />
    <path
       style="opacity:1;fill:#b3b3b3;fill-opacity:1;fill-rule:evenodd;stroke:none;stroke-width:8;stroke-linecap:round;stroke-linejoin:round;stroke-miterlimit:4;stroke-dasharray:none;stroke-dashoffset:0;stroke-opacity:1"
       d="m 1842.7266,390.8457 c -43.165,-0.2915 -93.1452,21.89845 -146.8672,21.89844 -54.2822,-1e-5 -105.9632,-27.38827 -150.6739,-19.33008 -91.8212,16.5489 -142.7879,86.19426 -149.4609,173.11133 -5.8452,76.13653 15.1662,135.84298 46.6641,174.74219 l 0,119.0293 106.8398,0 c 0,0 -11.2082,-57.03891 0,-96.26758 19.6332,-23.11187 47.7185,-44.11981 66.9512,-83.85742 35.849,45.12296 77.5275,74.13282 119.6797,74.13281 35.6127,-1e-5 68.1157,-1.91479 97.1758,-6.36328 l 0,108.60937 93.9531,0 c 0,0 -33.6246,-89.12368 0,-139.56055 37.3166,-22.80996 60.5024,-57.74118 67.1426,-109.11718 10.0392,10.49611 20.944,20.50404 32.4863,29.81445 80.861,64.87992 103.9976,66.34175 209.4648,38.89453 10.8223,-13.61722 14.9093,-32.24431 11.8633,-54.06836 31.396,-29.22311 70.6296,-92.7871 79.5039,-141.00976 1.5958,-8.67144 11.029,-28.92812 -6.957,-21.11524 -6.1172,2.65723 -38.1905,88.87954 -90.7402,109.85742 -4.6158,-8.61438 -10.0095,-17.27501 -16.1133,-25.87304 12.9592,-24.63213 31.2063,-44.61767 26.082,-53.28907 -5.0048,-8.4693 -33.9622,4.81395 -60.7539,12.8418 -8.2748,-8.17865 -17.0616,-16.01468 -26.2441,-23.4043 -48.3321,-38.78 -103.8222,-62.25941 -148.2911,-62.74609 -24.8734,-0.21086 -48.8727,-7.17077 -61.7754,6.33789 -22.4252,-23.36617 -47.6294,-25.29352 -81.8574,-31.63672 -5.8793,-1.08957 -11.9058,-1.58922 -18.0722,-1.63086 z"
       id="path4379"
       inkscape:connector-curvature="0"
       sodipodi:nodetypes="sssscccccsccccccccssccsccccss" />
    <ellipse
       style="opacity:1;fill:#000000;fill-opacity:1;fill-rule:evenodd;stroke:none;stroke-width:8;stroke-linecap:round;stroke-linejoin:round;stroke-miterlimit:4;stroke-dasharray:none;stroke-dashoffset:0;stroke-opacity:1"
       id="path4408"
       cx="2135.6836"
       cy="-460.13242"
       rx="11.563389"
       ry="6.2210574"
       transform="matrix(0.89602745,0.44399866,-0.44399866,0.89602745,0,0)" />
    <path
       style="opacity:1;fill:#666666;fill-opacity:1;fill-rule:evenodd;stroke:none;stroke-width:8;stroke-linecap:round;stroke-linejoin:round;stroke-miterlimit:4;stroke-dasharray:none;stroke-dashoffset:0;stroke-opacity:1"
       d="m 1404.7715,517.55859 c -4.708,15.47444 -7.7355,31.88566 -9.0469,48.9668 -5.8452,76.13653 15.1662,135.84298 46.6641,174.74219 l 0,2.20703 c 33.7237,24.75412 73.3725,32.83281 94.5664,27.2793 A 183.47979,132.69342 58.46493 0 1 1419.2422,652.83398 183.47979,132.69342 58.46493 0 1 1404.8496,517.59375 l -0.078,-0.0352 z m 580.5254,66.02539 a 183.47979,132.69342 6.8074326 0 1 7.7519,31.56836 c 0.3952,-2.39284 0.763,-4.81102 1.0821,-7.27929 10.0392,10.49611 20.944,20.50404 32.4863,29.81445 76.4572,61.34652 101.3493,65.97793 192.9863,43.09961 l -1.4492,-0.66602 c -38.0964,10.35881 -99.8267,-11.70962 -156.9063,-38.17968 -32.4198,-15.03443 -58.543,-35.80048 -75.9511,-58.35743 z m -358.293,33.26954 c 6.2712,31.28293 -7.5579,59.42034 -10.0898,64.22656 35.684,44.59876 77.0792,73.22462 118.9453,73.22461 35.6127,-1e-5 68.1157,-1.91479 97.1758,-6.36328 l 0,0.35156 1.1035,-2.00586 a 183.47979,132.69342 6.8074326 0 1 -69.5879,-6.97852 183.47979,132.69342 6.8074326 0 1 -135.4961,-121.53906 l -2.0508,-0.91601 z"
       id="path4421"
       inkscape:connector-curvature="0" />
    <path
       style="fill:none;fill-rule:evenodd;stroke:#000000;stroke-width:8;stroke-linecap:butt;stroke-linejoin:miter;stroke-miterlimit:4;stroke-dasharray:none;stroke-opacity:1"
       d="m 1616.2892,682.27893 c 0,0 26.2552,-46.42122 2.0971,-88.37997"
       id="path4391"
       inkscape:connector-curvature="0"
       sodipodi:nodetypes="cc" />
    <path
       sodipodi:nodetypes="sssscccccsccccccccssccsccccss"
       inkscape:connector-curvature="0"
       id="path4450"
       d="m 1842.7266,390.8457 c -43.165,-0.2915 -93.1452,21.89845 -146.8672,21.89844 -54.2822,-1e-5 -105.9632,-27.38827 -150.6739,-19.33008 -91.8212,16.5489 -142.7879,86.19426 -149.4609,173.11133 -5.8452,76.13653 15.1662,135.84298 46.6641,174.74219 l 0,119.0293 106.8398,0 c 0,0 -11.2082,-57.03891 0,-96.26758 19.6332,-23.11187 47.7185,-44.11981 66.9512,-83.85742 35.849,45.12296 77.5275,74.13282 119.6797,74.13281 35.6127,-1e-5 68.1157,-1.91479 97.1758,-6.36328 l 0,108.60937 93.9531,0 c 0,0 -33.6246,-89.12368 0,-139.56055 37.3166,-22.80996 60.5024,-57.74118 67.1426,-109.11718 10.0392,10.49611 20.944,20.50404 32.4863,29.81445 80.861,64.87992 103.9976,66.34175 209.4648,38.89453 10.8223,-13.61722 14.9093,-32.24431 11.8633,-54.06836 31.396,-29.22311 70.6296,-92.7871 79.5039,-141.00976 1.5958,-8.67144 11.029,-28.92812 -6.957,-21.11524 -6.1172,2.65723 -38.1905,88.87954 -90.7402,109.85742 -4.6158,-8.61438 -10.0095,-17.27501 -16.1133,-25.87304 12.9592,-24.63213 31.2063,-44.61767 26.082,-53.28907 -5.0048,-8.4693 -33.9622,4.81395 -60.7539,12.8418 -8.2748,-8.17865 -17.0616,-16.01468 -26.2441,-23.4043 -48.3321,-38.78 -103.8222,-62.25941 -148.2911,-62.74609 -24.8734,-0.21086 -48.8727,-7.17077 -61.7754,6.33789 -22.4252,-23.36617 -47.6294,-25.29352 -81.8574,-31.63672 -5.8793,-1.08957 -11.9058,-1.58922 -18.0722,-1.63086 z"
       style="opacity:1;fill:none;fill-opacity:1;fill-rule:evenodd;stroke:#000000;stroke-width:8;stroke-linecap:round;stroke-linejoin:round;stroke-miterlimit:4;stroke-dasharray:none;stroke-dashoffset:0;stroke-opacity:1" />
    <path
       style="display:inline;fill:#cccccc;fill-rule:evenodd;stroke:#000000;stroke-width:8;stroke-linecap:round;stroke-linejoin:round;stroke-miterlimit:4;stroke-dasharray:none;stroke-opacity:1"
       d="m 2024.25,442.34091 -3.1136,-72.36364 c 0,0 18.9318,1.43182 41.0909,37.22727 6.25,26.70455 -11.8182,46.18182 -11.8182,46.18182"
       id="path4398"
       inkscape:connector-curvature="0"
       sodipodi:nodetypes="cccc" />
    <path
       sodipodi:nodetypes="cccc"
       inkscape:connector-curvature="0"
       id="path4405"
       d="m 2032.9806,444.79118 -0.9663,-22.45881 c 0,0 5.8756,0.44438 12.7529,11.55387 1.9398,8.28803 -3.6679,14.33301 -3.6679,14.33301"
       style="display:inline;fill:#000000;fill-rule:evenodd;stroke:none;stroke-width:2.48288321;stroke-linecap:round;stroke-linejoin:round;stroke-miterlimit:4;stroke-dasharray:none;stroke-opacity:1" />
  </g>
  <g
     inkscape:groupmode="layer"
     id="layer11"
     inkscape:label="aligator"
     style="display:inline">
    <path
       style="fill:#183e00;fill-opacity:1;fill-rule:evenodd;stroke:#000000;stroke-width:4;stroke-linecap:round;stroke-linejoin:round;stroke-miterlimit:4;stroke-dasharray:none;stroke-opacity:1"
       d="m 1368.6592,733.24219 c 0,0 -15.1578,-4.08947 -29.0664,-4.0918 -7.2854,-10e-4 -14.2269,1.11983 -18.4687,4.53711 -16.9701,13.6714 0.1782,58.39851 -14.5117,71.74414 -7.2607,6.5963 -15.8387,1.48953 -23.1348,1.69922 -12.2693,-2.01534 -21.0797,2.92373 -30.2148,8.03906 -9.026,5.05417 -7.1753,11.81729 4.1796,6.64453 4.2944,-1.9563 11.0027,-4.95422 15.4454,-6.94336 2.82,3.16453 -0.6309,7.80664 -0.6309,7.80664 -5.8278,1.52899 -13.0248,2.44029 -18.332,5.41211 -9.026,5.05417 -7.1752,11.81729 4.1797,6.64454 3.8855,-1.77005 9.1789,-4.13222 13.9765,-6.28126 1.2074,1.53022 2.9412,3.05921 5.1875,4.69922 -5.362,1.5946 -10.2197,4.31096 -15.1719,7.08399 -9.026,5.05417 -7.1752,11.81727 4.1797,6.64457 5.3446,-2.4348 17.4915,-7.86621 19.2227,-8.64067 33.6665,-7.60736 38.8989,-7.81794 55.5097,-24.50976 20.3379,-20.43703 23.5626,-48.25586 23.5626,-48.25586"
       id="path4662"
       inkscape:connector-curvature="0"
       sodipodi:nodetypes="cssscssccssccsccsc" />
    <path
       sodipodi:nodetypes="cssscssccssccsccsc"
       inkscape:connector-curvature="0"
       id="path4664"
       d="m 1094.8066,733.24219 c 0,0 -15.1578,-4.08947 -29.0664,-4.0918 -7.2854,-10e-4 -14.2269,1.11983 -18.4687,4.53711 -16.9701,13.6714 0.1782,58.39851 -14.5117,71.74414 -7.2607,6.5963 -15.8387,1.48953 -23.1348,1.69922 -12.2693,-2.01534 -21.0797,2.92373 -30.2148,8.03906 -9.026,5.05417 -7.17527,11.81729 4.1796,6.64453 4.2944,-1.9563 11.0027,-4.95422 15.4454,-6.94336 2.82,3.16453 -0.6309,7.80664 -0.6309,7.80664 -5.8278,1.52899 -13.0248,2.44029 -18.332,5.41211 -9.02595,5.05417 -7.17522,11.81729 4.1797,6.64454 3.8855,-1.77005 9.1789,-4.13222 13.9765,-6.28126 1.2074,1.53022 2.9412,3.05921 5.1875,4.69922 -5.362,1.5946 -10.2197,4.31096 -15.1719,7.08399 -9.026,5.05417 -7.1752,11.81727 4.1797,6.64457 5.3446,-2.4348 17.4915,-7.86621 19.2227,-8.64067 33.6665,-7.60736 38.8989,-7.81794 55.5097,-24.50976 20.3379,-20.43703 23.5626,-48.25586 23.5626,-48.25586"
       style="fill:#183e00;fill-opacity:1;fill-rule:evenodd;stroke:#000000;stroke-width:4;stroke-linecap:round;stroke-linejoin:round;stroke-miterlimit:4;stroke-dasharray:none;stroke-opacity:1" />
    <path
       style="opacity:1;fill:#225500;fill-opacity:1;fill-rule:evenodd;stroke:none;stroke-width:4;stroke-linecap:round;stroke-linejoin:round;stroke-miterlimit:4;stroke-dasharray:none;stroke-dashoffset:0;stroke-opacity:1"
       d="m 1055.2598,683.65039 -29.7168,41.07031 c -15.5261,-2.17365 -32.87085,-4.79601 -51.35941,-7.35156 -9.24428,-1.27777 -18.77482,-2.53879 -28.50586,-3.71875 -9.73103,-1.17995 -19.66434,-2.27915 -29.71289,-3.23242 -10.04854,-0.95327 -20.21333,-1.76165 -30.41015,-2.35938 -10.19682,-0.59772 -20.42377,-0.98433 -30.59961,-1.09765 -10.17585,-0.11332 -20.29953,0.0469 -30.28516,0.54687 -4.99281,0.24998 -9.9517,0.58426 -14.86523,1.01172 -0.0395,0.003 -0.0777,0.0102 -0.11719,0.0137 -1.06825,1.70559 -1.77919,3.5343 -1.7793,5.63477 0.001,21.18024 43.25591,-2.29747 95.83203,30.06641 13.32734,8.2038 32.30151,18.9395 49.78907,18.93945 12.95632,-0.003 25.85337,-0.58859 38.34961,-1.74024 19.56049,32.48382 122.75239,56.33485 243.78909,56.34766 80.7387,-0.0113 149.2093,-13.99487 198.5605,-18.75586 85.8213,-8.27933 161.9077,-25.18987 332.2012,-17.15039 69.5807,3.28487 60.5306,-7.87171 14.5488,-19.83984 -3.9175,-8.56395 -15.0633,-9.2509 -19.164,-3.73828 -0.5113,-0.0716 -0.9931,-0.15396 -1.5118,-0.22266 -1.7728,-0.23483 -3.5262,-0.44869 -5.289,-0.67188 -4.4584,-8.46185 -16.0098,-8.40516 -19.5293,-2.26953 -2.1412,-0.22676 -4.2839,-0.45477 -6.4082,-0.66601 -4.8461,-7.34956 -15.0428,-6.93673 -18.8242,-1.70313 -2.3322,-0.18976 -4.6403,-0.36184 -6.9493,-0.53515 -4.9641,-8.05507 -16.1567,-7.32016 -19.5195,-1.30469 -2.4395,-0.14289 -4.8581,-0.27485 -7.2676,-0.40235 -5.0057,-7.12354 -15.4374,-6.55877 -18.8066,-0.87109 -3.0312,-0.12028 -6.0361,-0.23045 -9.0117,-0.33203 -5.1726,-7.0079 -15.4802,-6.18204 -18.8125,-0.54883 -3.0918,-0.0759 -6.0752,-0.13573 -9.0957,-0.19922 -5.2809,-6.64039 -15.1263,-5.67503 -18.5586,-0.34961 -3.1915,-0.0534 -6.3366,-0.10931 -9.4317,-0.16015 -5.2841,-6.64621 -15.1371,-5.6755 -18.5644,-0.3418 -2.6099,-0.0539 -5.2235,-0.11105 -7.7481,-0.17383 -5.1294,-6.53469 -14.8671,-5.83058 -18.3633,-0.60156 -2.943,-0.12827 -5.7966,-0.27659 -8.5878,-0.43945 -4.854,-8.38521 -16.2683,-7.72563 -19.6973,-1.66016 -2.4927,-0.29398 -4.8884,-0.62181 -7.1992,-0.98047 -2.9176,-9.65056 -14.8384,-11.3503 -19.2969,-5.6582 -1.8357,-0.64153 -3.6585,-1.2883 -5.5352,-1.98047 -2.039,-9.04035 -12.8201,-12.21714 -17.8945,-7.4375 -1.7569,-0.87888 -3.2372,-1.70439 -4.293,-2.4375 -2.4686,-8.89623 -10.9727,-8.89163 -14.4472,-8.50391 -1.551,-0.7124 -3.1502,-1.41695 -4.7969,-2.11328 -3.9682,-9.83781 -13.9854,-7.41126 -16.666,-6.55859 -1.2541,-0.45753 -2.5296,-0.91069 -3.8262,-1.35938 -4.7881,-9.33017 -14.2787,-6.23842 -17.0664,-5.08007 -1.165,-0.31373 -2.3415,-0.62429 -3.5293,-0.93165 -5.9155,-10.85006 -17.2612,-4.81076 -18.2285,-4.26953 -1.1556,-0.22734 -2.3184,-0.45197 -3.4883,-0.67382 -5.794,-8.98205 -15.0357,-4.76752 -17.6523,-3.32032 -1.4048,-0.22254 -2.8176,-0.4413 -4.2383,-0.65625 -5.8425,-7.94418 -14.1469,-4.25676 -17.1035,-2.57226 -1.9978,-0.24947 -4.0077,-0.49168 -6.0293,-0.72657 -6.088,-7.66862 -14.1673,-3.79697 -17.1231,-1.98046 -1.4933,-0.13736 -2.9914,-0.27081 -4.4941,-0.4004 -6.501,-8.0112 -15.0115,-3.27532 -17.6035,-1.5332 -1.6259,-0.10214 -3.2555,-0.1998 -4.8887,-0.29297 -6.3487,-7.12258 -14.5865,-2.61489 -17.0195,-1.02539 -1.415,-0.0561 -2.8317,-0.10881 -4.25,-0.1582 -6.6789,-7.15829 -14.6765,-2.39837 -17.2344,-0.55274 -1.6006,-0.0485 -3.2028,-0.0928 -4.8066,-0.13281 -6.2163,-5.65187 -12.7046,-2.46699 -15.9551,-0.13672 -1.9679,0.0209 -3.9349,0.0483 -5.9004,0.082 -6.2299,-5.39233 -12.6837,-2.07744 -15.832,0.22461 -2.2503,0.0632 -4.4973,0.13485 -6.7403,0.21485 -6.1695,-4.96146 -12.4864,-1.60916 -15.5293,0.64453 -2.1438,0.0991 -4.2826,0.20587 -6.416,0.32031 -6.9808,-5.84206 -14.1245,-0.93258 -16.6172,1.16211 -1.1891,0.0809 -2.376,0.16427 -3.5605,0.25 -6.4926,-4.41344 -12.0565,-1.28239 -15.168,1.45703 -2.3889,0.22704 -4.7647,0.46405 -7.127,0.71094 -7.048,-4.87435 -13.0181,-0.83073 -15.9609,2.01758 -2.1371,0.27232 -4.2597,0.55294 -6.3672,0.8418 -7.7682,-5.43786 -14.2007,-0.0616 -16.7676,2.71093 -4.7149,0.79027 -9.3308,1.62343 -13.8398,2.49805 -13.0064,-6.64473 -23.9975,-10.56999 -34.0859,-12.85547 z"
       id="path4570"
       inkscape:connector-curvature="0" />
    <path
       style="opacity:1;fill:#183e00;fill-opacity:1;fill-rule:evenodd;stroke:none;stroke-width:4;stroke-linecap:round;stroke-linejoin:round;stroke-miterlimit:4;stroke-dasharray:none;stroke-dashoffset:0;stroke-opacity:1"
       d="m 816.13477,708.57227 c -5.14644,3.09315 -8.22632,0.74831 -8.22657,5.5957 0.001,21.18024 43.25591,-2.29747 95.83203,30.06641 13.32734,8.2038 32.30151,18.9395 49.78907,18.93945 12.95632,-0.003 25.85337,-0.58859 38.34961,-1.74024 19.56049,32.48382 122.75239,56.33485 243.78909,56.34766 80.7387,-0.0113 149.2093,-13.99487 198.5605,-18.75586 85.8213,-8.27933 161.9077,-25.18987 332.2012,-17.15039 56.9499,2.68858 61.2059,-4.2995 35.6699,-13.48633 -7.3052,0.16407 -16.4514,0.0159 -27.6699,-0.51367 -170.2935,-8.03948 -246.3799,8.87106 -332.2012,17.15039 -49.3512,4.76099 -117.8218,18.74456 -198.5605,18.75586 -121.0367,-0.0128 -224.2286,-23.86384 -243.78909,-56.34766 -12.49624,1.15165 -25.39329,1.73724 -38.34961,1.74024 -17.48756,5e-5 -36.46173,-10.73565 -49.78907,-18.93945 -50.39701,-31.02251 -92.22352,-4.74266 -95.60546,-21.66211 z"
       id="path4655"
       inkscape:connector-curvature="0"
       sodipodi:nodetypes="ccscccsscsscccsc" />
    <path
       style="fill:#225500;fill-opacity:1;fill-rule:evenodd;stroke:none;stroke-width:1px;stroke-linecap:butt;stroke-linejoin:miter;stroke-opacity:1"
       d="m 1020.9957,724.44654 26.0838,-40.98888 25.4628,6.21044 -37.2626,48.4414 z"
       id="path4690"
       inkscape:connector-curvature="0" />
    <path
       inkscape:transform-center-y="10.133382"
       inkscape:transform-center-x="202.36149"
       inkscape:connector-curvature="0"
       id="path4708"
       d="m 831.68816,707.05581 3.33541,-8.41636 4.61597,8.58875"
       style="display:inline;fill:#ffffff;fill-rule:evenodd;stroke:#000000;stroke-width:1px;stroke-linecap:butt;stroke-linejoin:miter;stroke-opacity:1" />
    <path
       inkscape:transform-center-y="10.133382"
       inkscape:transform-center-x="176.45199"
       style="display:inline;fill:#ffffff;fill-rule:evenodd;stroke:#000000;stroke-width:1px;stroke-linecap:butt;stroke-linejoin:miter;stroke-opacity:1"
       d="m 859.59766,707.03194 3.33541,-8.41636 4.61597,8.58875"
       id="path4710"
       inkscape:connector-curvature="0" />
    <path
       inkscape:transform-center-y="-1.0159259"
       inkscape:transform-center-x="0.592507"
       style="display:inline;fill:#ffffff;fill-rule:evenodd;stroke:#000000;stroke-width:1px;stroke-linecap:butt;stroke-linejoin:miter;stroke-opacity:1"
       d="m 916.10204,710.27669 4.04702,-8.09828 3.86008,8.95404"
       id="path4714"
       inkscape:connector-curvature="0" />
    <path
       inkscape:transform-center-y="-1.422548"
       inkscape:transform-center-x="-0.19332007"
       inkscape:connector-curvature="0"
       id="path4712"
       d="m 889.79519,708.47899 3.67488,-8.27378 4.26291,8.76933"
       style="display:inline;fill:#ffffff;fill-rule:evenodd;stroke:#000000;stroke-width:1px;stroke-linecap:butt;stroke-linejoin:miter;stroke-opacity:1" />
    <path
       inkscape:transform-center-y="-0.9967497"
       inkscape:transform-center-x="1.4759812"
       inkscape:connector-curvature="0"
       id="path4716"
       d="m 946.26077,713.30363 4.45261,-7.88249 3.40087,9.13824"
       style="display:inline;fill:#ffffff;fill-rule:evenodd;stroke:#000000;stroke-width:1px;stroke-linecap:butt;stroke-linejoin:miter;stroke-opacity:1" />
    <path
       inkscape:transform-center-y="-0.35792625"
       inkscape:transform-center-x="1.171077"
       style="display:inline;fill:#ffffff;fill-rule:evenodd;stroke:#000000;stroke-width:1px;stroke-linecap:butt;stroke-linejoin:miter;stroke-opacity:1"
       d="m 976.19641,716.89468 4.37867,-7.92384 3.48622,9.10604"
       id="path4718"
       inkscape:connector-curvature="0" />
    <path
       style="opacity:1;fill:none;fill-opacity:1;fill-rule:evenodd;stroke:#000000;stroke-width:4;stroke-linecap:round;stroke-linejoin:round;stroke-miterlimit:4;stroke-dasharray:none;stroke-dashoffset:0;stroke-opacity:1"
       d="m 1025.543,724.7207 c -15.5261,-2.17365 -32.87085,-4.79601 -51.35941,-7.35156 -9.24428,-1.27777 -18.77482,-2.53879 -28.50586,-3.71875 -9.73103,-1.17995 -19.66434,-2.27915 -29.71289,-3.23242 -10.04854,-0.95327 -20.21333,-1.76165 -30.41015,-2.35938 -10.19682,-0.59772 -20.42377,-0.98433 -30.59961,-1.09765 -10.17585,-0.11332 -20.29953,0.0469 -30.28516,0.54687 -4.99281,0.24998 -9.9517,0.58426 -14.86523,1.01172 -0.0395,0.003 -0.0777,0.0102 -0.11719,0.0137 -1.06825,1.70559 -1.77919,3.5343 -1.7793,5.63477 0.001,21.18024 43.25591,-2.29747 95.83203,30.06641 13.32734,8.2038 32.30151,18.9395 49.78907,18.93945 12.95632,-0.003 25.85337,-0.58859 38.34961,-1.74024 19.56049,32.48382 122.75239,56.33485 243.78909,56.34766 80.7387,-0.0113 149.2093,-13.99487 198.5605,-18.75586 85.8213,-8.27933 161.9077,-25.18987 332.2012,-17.15039 69.5807,3.28487 60.5306,-7.87171 14.5488,-19.83984 -3.9175,-8.56395 -15.0633,-9.2509 -19.164,-3.73828 -0.5113,-0.0716 -0.9931,-0.15396 -1.5118,-0.22266 -1.7728,-0.23483 -3.5262,-0.44869 -5.289,-0.67188 -4.4584,-8.46185 -16.0098,-8.40516 -19.5293,-2.26953 -2.1412,-0.22676 -4.2839,-0.45477 -6.4082,-0.66601 -4.8461,-7.34956 -15.0428,-6.93673 -18.8242,-1.70313 -2.3322,-0.18976 -4.6403,-0.36184 -6.9493,-0.53515 -4.9641,-8.05507 -16.1567,-7.32016 -19.5195,-1.30469 -2.4395,-0.14289 -4.8581,-0.27485 -7.2676,-0.40235 -5.0057,-7.12354 -15.4374,-6.55877 -18.8066,-0.87109 -3.0312,-0.12028 -6.0361,-0.23045 -9.0117,-0.33203 -5.1726,-7.0079 -15.4802,-6.18204 -18.8125,-0.54883 -3.0918,-0.0759 -6.0752,-0.13573 -9.0957,-0.19922 -5.2809,-6.64039 -15.1263,-5.67503 -18.5586,-0.34961 -3.1915,-0.0534 -6.3366,-0.10931 -9.4317,-0.16015 -5.2841,-6.64621 -15.1371,-5.6755 -18.5644,-0.3418 -2.6099,-0.0539 -5.2235,-0.11105 -7.7481,-0.17383 -5.1294,-6.53469 -14.8671,-5.83058 -18.3633,-0.60156 -2.943,-0.12827 -5.7966,-0.27659 -8.5878,-0.43945 -4.854,-8.38521 -16.2683,-7.72563 -19.6973,-1.66016 -2.4927,-0.29398 -4.8884,-0.62181 -7.1992,-0.98047 -2.9176,-9.65056 -14.8384,-11.3503 -19.2969,-5.6582 -1.8357,-0.64153 -3.6585,-1.2883 -5.5352,-1.98047 -2.039,-9.04035 -12.8201,-12.21714 -17.8945,-7.4375 -1.7569,-0.87888 -3.2372,-1.70439 -4.293,-2.4375 -2.4686,-8.89623 -10.9727,-8.89163 -14.4472,-8.50391 -1.551,-0.7124 -3.1502,-1.41695 -4.7969,-2.11328 -3.9682,-9.83781 -13.9854,-7.41126 -16.666,-6.55859 -1.2541,-0.45753 -2.5296,-0.91069 -3.8262,-1.35938 -4.7881,-9.33017 -14.2787,-6.23842 -17.0664,-5.08007 -1.165,-0.31373 -2.3415,-0.62429 -3.5293,-0.93165 -5.9155,-10.85006 -17.2612,-4.81076 -18.2285,-4.26953 -1.1556,-0.22734 -2.3184,-0.45197 -3.4883,-0.67382 -5.794,-8.98205 -15.0357,-4.76752 -17.6523,-3.32032 -1.4048,-0.22254 -2.8176,-0.4413 -4.2383,-0.65625 -5.8425,-7.94418 -14.1469,-4.25676 -17.1035,-2.57226 -1.9978,-0.24947 -4.0077,-0.49168 -6.0293,-0.72657 -6.088,-7.66862 -14.1673,-3.79697 -17.1231,-1.98046 -1.4933,-0.13736 -2.9914,-0.27081 -4.4941,-0.4004 -6.501,-8.0112 -15.0115,-3.27532 -17.6035,-1.5332 -1.6259,-0.10214 -3.2555,-0.1998 -4.8887,-0.29297 -6.3487,-7.12258 -14.5865,-2.61489 -17.0195,-1.02539 -1.415,-0.0561 -2.8317,-0.10881 -4.25,-0.1582 -6.6789,-7.15829 -14.6765,-2.39837 -17.2344,-0.55274 -1.6006,-0.0485 -3.2028,-0.0928 -4.8066,-0.13281 -6.2163,-5.65187 -12.7046,-2.46699 -15.9551,-0.13672 -1.9679,0.0209 -3.9349,0.0483 -5.9004,0.082 -6.2299,-5.39233 -12.6837,-2.07744 -15.832,0.22461 -2.2503,0.0632 -4.4973,0.13485 -6.7403,0.21485 -6.1695,-4.96146 -12.4864,-1.60916 -15.5293,0.64453 -2.1438,0.0991 -4.2826,0.20587 -6.416,0.32031 -6.9808,-5.84206 -14.1245,-0.93258 -16.6172,1.16211 -1.1891,0.0809 -2.376,0.16427 -3.5605,0.25 -6.4926,-4.41344 -12.0565,-1.28239 -15.168,1.45703 -2.3889,0.22704 -4.7647,0.46405 -7.127,0.71094 -7.048,-4.87435 -13.0181,-0.83073 -15.9609,2.01758 -2.1371,0.27232 -4.2597,0.55294 -6.3672,0.8418 -7.7682,-5.43786 -14.2007,-0.0616 -16.7676,2.71093 -4.7149,0.79027 -9.3308,1.62343 -13.8398,2.49805 -13.0064,-6.64473 -44.0051,-13.3807 -54.0935,-15.66618"
       id="path4660"
       inkscape:connector-curvature="0"
       sodipodi:nodetypes="csssssscccscccssccccccccccccccccccccccccccccccccccccccccccccccccccccccccccccc" />
    <path
       style="fill:#225500;fill-opacity:1;fill-rule:evenodd;stroke:#000000;stroke-width:4;stroke-linecap:round;stroke-linejoin:round;stroke-miterlimit:4;stroke-dasharray:none;stroke-opacity:1"
       d="m 1130.8066,757.24219 c 0,0 -15.1578,-4.08947 -29.0664,-4.0918 -7.2854,-10e-4 -14.2269,1.11983 -18.4687,4.53711 -16.9701,13.6714 0.1782,58.39851 -14.5117,71.74414 -7.2607,6.5963 -15.8387,1.48953 -23.1348,1.69922 -12.2693,-2.01534 -21.0797,2.92373 -30.2148,8.03906 -9.026,5.05417 -7.1753,11.81729 4.1796,6.64453 4.2944,-1.9563 11.0027,-4.95422 15.4454,-6.94336 2.82,3.16453 -0.6309,7.80664 -0.6309,7.80664 -5.8278,1.52899 -13.0248,2.44029 -18.332,5.41211 -9.026,5.05417 -7.1752,11.81729 4.1797,6.64454 3.8855,-1.77005 9.1789,-4.13222 13.9765,-6.28126 1.2074,1.53022 2.9412,3.05921 5.1875,4.69922 -5.362,1.5946 -10.2197,4.31096 -15.1719,7.08399 -9.026,5.05417 -7.1752,11.81727 4.1797,6.64457 5.3446,-2.4348 17.4915,-7.86621 19.2227,-8.64067 33.6665,-7.60736 38.8989,-7.81794 55.5097,-24.50976 20.3379,-20.43703 23.5626,-48.25586 23.5626,-48.25586"
       id="path4642"
       inkscape:connector-curvature="0"
       sodipodi:nodetypes="cssscssccssccsccsc" />
    <path
       sodipodi:nodetypes="cssscssccssccsccsc"
       inkscape:connector-curvature="0"
       id="path4653"
       d="m 1404.6592,757.24219 c 0,0 -15.1578,-4.08947 -29.0664,-4.0918 -7.2854,-10e-4 -14.2269,1.11983 -18.4687,4.53711 -16.9701,13.6714 0.1782,58.39851 -14.5117,71.74414 -7.2607,6.5963 -15.8387,1.48953 -23.1348,1.69922 -12.2693,-2.01534 -21.0797,2.92373 -30.2148,8.03906 -9.026,5.05417 -7.1753,11.81729 4.1796,6.64453 4.2944,-1.9563 11.0027,-4.95422 15.4454,-6.94336 2.82,3.16453 -0.6309,7.80664 -0.6309,7.80664 -5.8278,1.52899 -13.0248,2.44029 -18.332,5.41211 -9.026,5.05417 -7.1752,11.81729 4.1797,6.64454 3.8855,-1.77005 9.1789,-4.13222 13.9765,-6.28126 1.2074,1.53022 2.9412,3.05921 5.1875,4.69922 -5.362,1.5946 -10.2197,4.31096 -15.1719,7.08399 -9.026,5.05417 -7.1752,11.81727 4.1797,6.64457 5.3446,-2.4348 17.4915,-7.86621 19.2227,-8.64067 33.6665,-7.60736 38.8989,-7.81794 55.5097,-24.50976 20.3379,-20.43703 23.5626,-48.25586 23.5626,-48.25586"
       style="fill:#225500;fill-opacity:1;fill-rule:evenodd;stroke:#000000;stroke-width:4;stroke-linecap:round;stroke-linejoin:round;stroke-miterlimit:4;stroke-dasharray:none;stroke-opacity:1" />
  </g>
  <g
     inkscape:groupmode="layer"
     id="layer12"
     inkscape:label="aligator-head"
     style="display:inline;opacity:1">
    <path
       style="fill:#ffffff;fill-rule:evenodd;stroke:#000000;stroke-width:1px;stroke-linecap:butt;stroke-linejoin:miter;stroke-opacity:1"
       d="m 819.68816,707.78855 3.33541,8.41635 4.61597,-8.58875"
       id="path4696"
       inkscape:connector-curvature="0"
       inkscape:transform-center-x="202.36148"
       inkscape:transform-center-y="-10.133378" />
    <path
       inkscape:connector-curvature="0"
       id="path4698"
       d="m 845.59766,707.78854 3.3354,8.41636 4.61598,-8.58875"
       style="fill:#ffffff;fill-rule:evenodd;stroke:#000000;stroke-width:1px;stroke-linecap:butt;stroke-linejoin:miter;stroke-opacity:1"
       inkscape:transform-center-x="176.45198"
       inkscape:transform-center-y="-10.133378" />
    <path
       style="fill:#ffffff;fill-rule:evenodd;stroke:#000000;stroke-width:1px;stroke-linecap:butt;stroke-linejoin:miter;stroke-opacity:1"
       d="m 873.70289,707.78854 3.33541,8.41636 4.61597,-8.58875"
       id="path4700"
       inkscape:connector-curvature="0"
       inkscape:transform-center-x="148.34676"
       inkscape:transform-center-y="-10.133376" />
    <path
       inkscape:connector-curvature="0"
       id="path4702"
       d="m 905.07879,709.48486 2.20299,8.78105 5.70234,-7.90932"
       style="fill:#ffffff;fill-rule:evenodd;stroke:#000000;stroke-width:1px;stroke-linecap:butt;stroke-linejoin:miter;stroke-opacity:1"
       inkscape:transform-center-x="116.99388"
       inkscape:transform-center-y="-8.1685168" />
    <path
       style="fill:#ffffff;fill-rule:evenodd;stroke:#000000;stroke-width:1px;stroke-linecap:butt;stroke-linejoin:miter;stroke-opacity:1"
       d="m 931.31872,711.87376 1.6226,8.90659 6.20858,-7.51847"
       id="path4704"
       inkscape:connector-curvature="0"
       inkscape:transform-center-x="90.791023"
       inkscape:transform-center-y="-5.7168468" />
    <path
       style="display:inline;opacity:1;fill:#225500;fill-opacity:1;fill-rule:evenodd;stroke:none;stroke-width:4;stroke-linecap:round;stroke-linejoin:round;stroke-miterlimit:4;stroke-dasharray:none;stroke-dashoffset:0;stroke-opacity:1"
       d="m 1055.2598,683.6504 c -30.0843,-6.81547 -52.0948,1.03212 -95.21289,-4.52542 -4.12236,-0.53125 -23.617,-0.37159 -26.51761,-3.96286 -12.96463,-16.05162 -19.48148,-15.66291 -32.47461,-6.72266 -33.03747,23.33353 -81.83698,24.87763 -91.36719,40.09375 0.0395,-0.003 0.0776,-0.0102 0.11717,-0.0137 4.91353,-0.42746 9.87242,-0.76175 14.86523,-1.01172 9.98562,-0.49995 20.10931,-0.66018 30.28516,-0.54687 10.17583,0.11332 20.40278,0.49993 30.59961,1.09766 10.19682,0.59771 20.36161,1.4061 30.41014,2.35937 10.04856,0.95326 19.98187,2.05247 29.71289,3.23242 9.73105,1.17996 19.26158,2.44098 28.50587,3.71874 18.48848,2.55554 35.83323,5.17791 51.35943,7.35149 l 29.7168,-41.07025 z"
       id="path4685"
       inkscape:connector-curvature="0"
       inkscape:transform-center-x="93.551677"
       inkscape:transform-center-y="-28.545457" />
    <ellipse
       style="display:inline;opacity:1;fill:#000000;fill-opacity:1;fill-rule:evenodd;stroke:none;stroke-width:4;stroke-linecap:round;stroke-linejoin:round;stroke-miterlimit:4;stroke-dasharray:none;stroke-dashoffset:0;stroke-opacity:1"
       id="path4640"
       cx="915.15283"
       cy="676.10095"
       rx="6.0102606"
       ry="6.2750125"
       inkscape:transform-center-x="110.8725"
       inkscape:transform-center-y="-45.942956" />
    <path
       inkscape:connector-curvature="0"
       id="path4706"
       d="m 959.42395,715.38692 1.6226,8.90658 6.20858,-7.51847"
       style="fill:#ffffff;fill-rule:evenodd;stroke:#000000;stroke-width:1px;stroke-linecap:butt;stroke-linejoin:miter;stroke-opacity:1"
       inkscape:transform-center-x="62.685793"
       inkscape:transform-center-y="-2.2036918" />
    <path
       style="display:inline;opacity:1;fill:none;fill-opacity:1;fill-rule:evenodd;stroke:#000000;stroke-width:4;stroke-linecap:round;stroke-linejoin:round;stroke-miterlimit:4;stroke-dasharray:none;stroke-dashoffset:0;stroke-opacity:1"
       d="m 1055.2598,683.6504 c -30.0843,-6.81547 -52.0948,1.03212 -95.21289,-4.52542 -4.12236,-0.53125 -23.617,-0.37159 -26.51761,-3.96286 -12.96463,-16.05162 -19.48148,-15.66291 -32.47461,-6.72266 -33.03747,23.33353 -81.83698,24.87763 -91.36719,40.09375 0.0395,-0.003 0.0776,-0.0102 0.11717,-0.0137 4.91353,-0.42746 9.87242,-0.76175 14.86523,-1.01172 9.98562,-0.49995 20.10931,-0.66018 30.28516,-0.54687 10.17583,0.11332 20.40278,0.49993 30.59961,1.09766 10.19682,0.59771 20.36161,1.4061 30.41014,2.35937 10.04856,0.95326 19.98187,2.05247 29.71289,3.23242 9.73105,1.17996 19.26158,2.44098 28.50587,3.71874 18.48848,2.55554 35.83323,5.17791 51.35943,7.35149"
       id="path4688"
       inkscape:connector-curvature="0"
       sodipodi:nodetypes="csscccssssssc"
       inkscape:transform-center-x="93.551677"
       inkscape:transform-center-y="-28.545457" />
  </g>
  <g
     inkscape:groupmode="layer"
     id="layer13"
     inkscape:label="aligator-above">
    <path
       style="fill:#225500;fill-opacity:1;fill-rule:evenodd;stroke:none;stroke-width:1px;stroke-linecap:butt;stroke-linejoin:miter;stroke-opacity:1"
       d="m 1127.2777,718.97036 -75.149,-32.6857 -19.165,-4.08557 8.7912,60.07306 57.8752,-4.39559"
       id="path4727"
       inkscape:connector-curvature="0"
       sodipodi:nodetypes="ccccc" />
  </g>
  <g
     inkscape:groupmode="layer"
     id="layer7"
     inkscape:label="balloon"
     style="display:inline">
    <path
       style="fill:none;fill-rule:evenodd;stroke:#000000;stroke-width:8;stroke-linecap:butt;stroke-linejoin:miter;stroke-miterlimit:4;stroke-dasharray:none;stroke-opacity:1"
       d="M 0.7499215,-517.44586 0.7499215,0"
       id="path4374"
       inkscape:connector-curvature="0"
       sodipodi:nodetypes="cc" />
    <ellipse
       style="display:inline;opacity:1;fill:#ff0000;fill-opacity:1;fill-rule:evenodd;stroke:#000000;stroke-width:8;stroke-linecap:round;stroke-linejoin:round;stroke-miterlimit:4;stroke-dasharray:none;stroke-dashoffset:0;stroke-opacity:1"
       id="path4362"
       cx="-0.00021630859"
       cy="-579.12488"
       rx="71.365784"
       ry="86.549988" />
    <path
       style="fill:#ffffff;fill-rule:evenodd;stroke:none;stroke-width:1px;stroke-linecap:butt;stroke-linejoin:miter;stroke-opacity:1"
       d="m 12.1329,-638.73391 c 0,0 11.8105,3.75791 19.8631,12.88423 -2.1473,-9.66317 -12.8842,-19.86318 -12.8842,-19.86318"
       id="path4368"
       inkscape:connector-curvature="0"
       sodipodi:nodetypes="ccc" />
  </g>
  <g
     inkscape:groupmode="layer"
     id="layer5"
     inkscape:label="foreground"
     style="display:inline">
    <path
       sodipodi:nodetypes="ccccc"
       inkscape:connector-curvature="0"
       id="path4267"
       d="m 3048.2051,463.48528 64.6456,0 c -5.5404,238.2351 -17.7018,457.62465 10,568.43172 l -88.6456,0 c 24.9316,-77.56497 19.5404,-283.10363 14,-568.43172 z"
       style="opacity:1;fill:#28170b;fill-opacity:1;fill-rule:evenodd;stroke:#000000;stroke-width:4;stroke-linecap:round;stroke-linejoin:round;stroke-miterlimit:4;stroke-dasharray:none;stroke-dashoffset:0;stroke-opacity:1" />
    <path
       style="opacity:1;fill:#28170b;fill-opacity:1;fill-rule:evenodd;stroke:#000000;stroke-width:4;stroke-linecap:round;stroke-linejoin:round;stroke-miterlimit:4;stroke-dasharray:none;stroke-dashoffset:0;stroke-opacity:1"
       d="m 185.33789,371.65234 92.06641,156.75977 c 5.42927,276.20777 10.2142,437.417 -14.28125,513.62499 l 88.64453,0 C 324.35702,932.39507 335.96721,756.10769 341.58203,521.61523 l 53.21289,-149.96289 -35.63476,0 -41.80078,107.90235 -6.625,-107.90235 -41.2129,0 9.75586,105.36328 -58.96484,-105.36328 -34.97461,0 z"
       id="path4247"
       inkscape:connector-curvature="0" />
    <path
       style="opacity:1;fill:#002b11;fill-opacity:1;fill-rule:evenodd;stroke:#000000;stroke-width:4.35724068;stroke-linecap:round;stroke-linejoin:round;stroke-miterlimit:4;stroke-dasharray:none;stroke-dashoffset:0;stroke-opacity:1"
       d="m 498.71118,328.4917 c 5.33294,1.68021 8.93988,4.98901 -0.25314,6.23312 9.70122,3.52804 6.39745,18.80502 -4.30053,19.9416 9.55446,10.38444 -0.14832,16.73438 -7.5277,15.94599 7.97273,10.4061 -3.00263,18.20446 -10.12177,14.14217 4.24714,9.28382 -7.26854,23.06605 -14.80197,14.85353 2.1558,9.76375 -7.69145,16.09714 -13.51852,10.37028 1.83897,11.6032 -11.06299,20.3216 -17.74674,10.74844 -0.49649,14.94059 -15.76329,13.18364 -21.75311,10.08223 -1.89366,9.41301 -9.10985,14.96311 -17.3219,6.17761 -3.3847,10.39571 -8.77278,10.16666 -17.37857,4.84078 -3.96602,7.95814 -19.69199,12.0915 -25.59684,4.98859 -5.00764,10.41646 -15.87179,1.93609 -15.87179,1.93609 -5.96126,9.575 -13.44081,6.8934 -17.50448,1.17821 -9.31435,12.47192 -8.4087,0.24895 -12.66247,0.24895 -10.1093,10.66588 -19.53025,11.06076 -28.27169,3.22714 -4.43284,6.82121 -14.69149,9.73545 -22.02884,2.844 -3.51104,6.487 -28.82215,-1.40486 -28.28169,-16.20702 -4.3674,12.92256 -21.17336,14.85733 -19.50982,-6.11233 -9.40911,10.55326 -22.69326,7.21619 -22.25819,-9.28018 -14.65457,11.31551 -23.82955,-4.9391 -23.93099,-13.61707 -11.42844,7.32658 -25.38757,8.7413 -17.95447,-13.96851 -18.3015,7.39115 -23.47275,-5.07733 -18.19195,-20.47994 -10.36409,2.05737 -19.747,-0.88802 -11.19345,-21.40201 -14.782143,-4.90115 -16.904495,-15.88448 -4.73843,-26.69167 -16.405163,-10.79616 -7.697126,-27.77638 4.36628,-25.63914 -16.534434,-16.12282 -4.67859,-28.37275 11.43694,-22.26899 -10.40929,-19.06655 0.63971,-20.04472 7.92483,-10.12792 -9.52536,-20.81685 3.63047,-31.9183 17.50524,-16.5789 -2.98284,-27.52849 11.29938,-24.81508 17.59322,-12.23798 -1.77309,-25.86596 7.12159,-20.35565 15.85742,-8.66265 1.77529,-25.22084 14.78259,-18.91063 23.36203,-9.84437 3.01195,-29.21443 16.76813,-20.09268 24.41534,-7.416 5.38279,-31.57005 17.41639,-18.82578 24.05952,-4.95753 7.64447,-24.98747 12.20152,-9.3882 18.45787,-2.40854 7.04811,-23.86902 15.80827,-17.12166 20.26088,-1.35372 6.08126,-10.13048 11.11995,-0.19185 11.11995,-0.19185 10.84518,-18.44457 15.60677,-13.01208 19.08614,0.56749 11.28455,-22.66722 17.31376,-16.62455 27.24165,2.83894 8.9216,-14.74745 14.14426,-20.13677 16.85612,3.0305 4.70887,-17.33044 17.32575,-8.92602 15.03368,3.60043 14.17738,-15.7542 23.83554,-0.49612 20.33146,6.37499 17.5094,-11.05523 23.01565,-6.02104 21.39966,8.92328 16.39911,-9.97189 24.13681,-7.64996 16.41927,8.79624 21.73288,-8.38353 21.00108,2.91797 15.6193,10.50292 18.96199,-6.20658 18.30978,5.19731 13.39792,11.42616 14.30187,-1.64408 14.64074,7.15288 12.0559,13.44592 18.73933,-2.57324 17.36445,14.22213 11.78506,19.56394 8.84818,2.89269 13.17845,7.99653 5.55758,17.12709 8.21879,3.22639 9.37009,11.26783 1.57579,15.48969 z"
       id="path4255"
       inkscape:connector-curvature="0"
       sodipodi:nodetypes="cccccccccccccccccccccccccccccccccccccccccccccccccc" />
    <path
       style="opacity:1;fill:#28170b;fill-opacity:1;fill-rule:evenodd;stroke:#000000;stroke-width:4;stroke-linecap:round;stroke-linejoin:round;stroke-miterlimit:4;stroke-dasharray:none;stroke-dashoffset:0;stroke-opacity:1"
       d="m 1562.5282,288.01573 64.6456,0 c -5.5404,238.2351 -17.7018,639.62465 10,750.43167 l -88.6456,0 c 24.9316,-77.56492 19.5404,-465.10358 14,-750.43167 z"
       id="rect4242"
       inkscape:connector-curvature="0"
       sodipodi:nodetypes="ccccc" />
    <path
       style="fill:#008000;fill-rule:evenodd;stroke:#000000;stroke-width:5;stroke-linecap:round;stroke-linejoin:round;stroke-miterlimit:4;stroke-dasharray:none;stroke-opacity:1"
       d="m 0,1012.4219 0,120.4668 m 0,0 c 0,0 1708.3182,-7.3966 1854.1318,-9.0176 0,0 2178.0628,-10.4352 2183.9392,-17.291 l 0,-94.1581 c -4.225,-29.99916 -12.4694,-54.71302 -12.4694,-54.71302 l -23.5059,59.74412 -14.6895,-59.74412 -27.4238,58.76562 -11.7539,-62.68163 -41.1347,74.43363 -22.5254,-70.51762 -40.1563,70.51762 -28.4023,-58.76371 -26.4434,52.88871 -14.6914,-63.66215 -28.4023,71.49605 -26.4454,-71.49605 -21.5468,62.68165 -24.4844,-66.59962 -28.4023,67.58012 -25.4649,-70.51762 -36.2383,65.61912 -27.4238,-61.70115 -44.0723,56.80465 -15.6699,-51.90816 -21.5488,69.53706 -25.4629,-75.41402 -31.3418,54.84762 -26.4434,-50.92965 -30.3613,57.78515 -15.6719,-63.6621 -31.3398,58.7637 -14.6914,-54.84573 -21.5469,58.76363 -28.4023,-58.76363 -34.2793,59.74413 -19.5879,-55.82616 -27.4239,55.82616 -20.5683,-52.88866 -25.4629,53.86716 -14.6914,-53.86716 -31.3418,53.86716 -21.5469,-53.86716 -29.3808,52.88866 -15.6719,-50.92968 -24.4844,51.90818 -20.5684,-57.78513 -24.4843,52.88863 -30.3614,-56.80465 -31.3417,63.66015 -14.6915,-51.90819 -23.5058,49.94919 -20.5664,-54.84568 -30.3613,46.03128 -23.5059,-55.8262 -32.3203,62.6816 -25.4649,-56.80465 -31.3418,53.86715 -3.916,-67.57808 -28.4043,65.61918 -17.6289,-52.88872 -21.5469,57.78512 -18.6093,-65.6191 -31.3399,62.6816 -6.8554,-59.7441 -42.1153,50.9297 -12.7324,-61.70314 -32.3203,68.55864 -17.6289,-66.59965 -24.4844,79.33205 -22.5273,-66.59963 -25.4649,59.74413 -16.6484,-49.94921 -25.4649,53.86721 -17.6289,-50.92971 -30.3633,47.01171 -22.5253,-55.82616 -14.6914,51.90816 -19.5879,-36.23824 -30.3614,19.58789 -9.7949,-27.42383 -18.6074,47.01168 -19.5879,-44.07222 -29.3828,39.17582 -11.7539,-50.92973 -36.2363,37.21875 -1.959,-39.17774 -24.4864,46.03322 -17.1396,-31.83106 -25.2217,38.54296 -12.4863,-42.10644 -27.4219,58.76364 -11.7539,-62.68161 -41.1348,74.43551 -22.5254,-70.51754 -40.1562,70.51754 -28.4023,-58.76364 -26.4454,52.88674 -14.6894,-63.66018 -28.4043,71.49608 -26.4434,-71.49608 -21.5468,62.68168 -24.4844,-66.59964 -28.4024,67.57814 -25.4648,-70.5176 -36.2383,65.6211 -27.4238,-61.70313 -44.0723,56.80663 -15.6719,-51.91014 -21.5468,69.53904 -25.4649,-75.41404 -31.3398,54.84574 -26.4434,-50.92778 -30.3633,57.78318 -15.6699,-63.66013 -31.3398,58.76363 -14.6914,-54.84566 -21.5469,58.76366 -28.4023,-58.76366 -34.2793,59.74216 -19.5879,-55.82614 -27.4239,55.82614 -20.5683,-52.88669 -25.4649,53.86719 -14.6894,-53.86719 -31.3418,53.86719 -21.5469,-53.86719 -29.3828,52.88669 -15.6699,-50.92771 -24.4844,51.90821 -20.56836,-57.78516 -24.48438,52.88866 -30.36133,-56.80663 -31.34179,63.66213 -14.69141,-51.90822 -23.50586,49.94922 -20.5664,-54.84766 -30.36133,46.03316 -23.50586,-55.82613 -32.32031,62.68163 -25.46485,-56.80468 -31.3418,53.86718 -3.91796,-67.58007 -28.40235,65.62107 -17.6289,-52.88864 -21.54688,57.78514 -18.60937,-65.62108 -31.33985,62.68358 -6.85547,-59.74413 -42.11523,50.92973 -12.73242,-61.70317 -32.32031,68.55857 -17.62891,-66.59958 -24.48633,79.33208 -22.52539,-66.59966 -25.46484,59.74216 -16.65039,-49.94919 -25.4629,53.86719 -17.63085,-50.92774 -30.36133,47.00974 -22.52539,-55.82614 -14.69141,51.91014 -19.58789,-36.23827 -30.36133,19.58787 -9.79492,-27.42381 -18.60938,47.01171 -19.58789,-44.07421 -29.38085,39.17771 -11.75391,-50.92966 -36.238282,37.21676 -1.957032,-39.17574 -24.486328,46.03324 -8.814453,-36.23832 -9.794922,42.11332 L 16.896484,986.95703 0,1012.4219"
       id="path4225"
       inkscape:connector-curvature="0"
       sodipodi:nodetypes="cccccccccccccccccccccccccccccccccccccccccccccccccccccccccccccccccccccccccccccccccccccccccccccccccccccccccccccccccccccccccccccccccccccccccccccccccccccccccccccccccccccccccccccccccc" />
    <path
       style="fill:#d35f5f;fill-rule:evenodd;stroke:#000000;stroke-width:4;stroke-linecap:butt;stroke-linejoin:miter;stroke-miterlimit:4;stroke-dasharray:none;stroke-opacity:1"
       d="m 1592.851,320.97188 c 82.5136,34.27487 119.6984,114.03441 187.0971,211.3402 52.1653,-152.77385 -140.0095,-254.7432 -140.0095,-254.7432 118.0579,43.16095 272.5154,51.38541 272.5154,51.38541 -25.3888,-79.9747 -285.2098,-116.60019 -285.2098,-116.60019 93.9386,-49.50815 273.1984,15.57215 273.1984,15.57215 -161.2188,-170.104915 -326.9829,-20.53157 -326.9829,-20.53157 -78.7052,-152.33276 -266.9804,43.61817 -266.9804,43.61817 0,0 216.0792,-63.80548 219.8875,3.47482 -139.6384,6.3472 -202.9168,42.2519 -202.9168,139.99876 69.8192,-76.16639 187.3231,-89.43633 187.3231,-89.43633 -167.566,107.90237 -35.5524,204.17808 -35.5524,204.17808 34.6272,-189.75703 117.6303,-188.2563 117.6303,-188.2563 z"
       id="path4245"
       inkscape:connector-curvature="0"
       sodipodi:nodetypes="ccccccccccccc" />
    <path
       style="opacity:1;fill:#008000;fill-opacity:1;fill-rule:evenodd;stroke:none;stroke-width:4;stroke-linecap:round;stroke-linejoin:round;stroke-miterlimit:4;stroke-dasharray:none;stroke-dashoffset:0;stroke-opacity:1"
       d="m -36.941406,1013.6211 0,116.0195 73.30664,0 0,-77.0176 -11.544922,-4.3691 -13.488281,-34.6328 -48.273437,0 z"
       id="rect4261"
       inkscape:connector-curvature="0" />
    <path
       sodipodi:nodetypes="ccccccccccccc"
       inkscape:connector-curvature="0"
       id="path4269"
       d="m 3073.136,481.70263 c -82.5136,34.27487 -119.6984,114.03441 -187.0971,211.3402 -52.1653,-152.77385 140.0095,-254.7432 140.0095,-254.7432 -118.0579,43.16095 -272.5154,51.38541 -272.5154,51.38541 25.3888,-79.9747 285.2098,-116.60019 285.2098,-116.60019 -93.9386,-49.50815 -273.1984,15.57215 -273.1984,15.57215 161.2188,-170.10492 326.9829,-20.53157 326.9829,-20.53157 78.7052,-152.33276 266.9804,43.61817 266.9804,43.61817 0,0 -216.0792,-63.80548 -219.8875,3.47482 139.6384,6.3472 202.9168,42.2519 202.9168,139.99876 -69.8192,-76.16639 -187.3231,-89.43633 -187.3231,-89.43633 167.566,107.90237 35.5524,204.17808 35.5524,204.17808 C 3156.1391,480.2019 3073.136,481.70263 3073.136,481.70263 Z"
       style="fill:#b3b3b3;fill-rule:evenodd;stroke:#000000;stroke-width:4;stroke-linecap:butt;stroke-linejoin:miter;stroke-miterlimit:4;stroke-dasharray:none;stroke-opacity:1" />
  </g>
</svg>
