<?xml version="1.0" encoding="UTF-8" standalone="no"?>
<!-- Created with Inkscape (http://www.inkscape.org/) -->

<svg
   xmlns:dc="http://purl.org/dc/elements/1.1/"
   xmlns:cc="http://creativecommons.org/ns#"
   xmlns:rdf="http://www.w3.org/1999/02/22-rdf-syntax-ns#"
   xmlns:svg="http://www.w3.org/2000/svg"
   xmlns="http://www.w3.org/2000/svg"
   xmlns:sodipodi="http://sodipodi.sourceforge.net/DTD/sodipodi-0.dtd"
   xmlns:inkscape="http://www.inkscape.org/namespaces/inkscape"
   width="1920"
   height="1080"
   viewBox="0 0 1920 1080"
   id="svg2"
   version="1.1"
   inkscape:version="0.91 r13725"
   sodipodi:docname="elephant.svg">
  <defs
     id="defs4" />
  <sodipodi:namedview
     id="base"
     pagecolor="#ffffff"
     bordercolor="#666666"
     borderopacity="1.0"
     inkscape:pageopacity="0.0"
     inkscape:pageshadow="2"
     inkscape:zoom="0.23459421"
     inkscape:cx="635.62944"
     inkscape:cy="420.299"
     inkscape:document-units="px"
     inkscape:current-layer="layer4"
     showgrid="false"
     units="px"
     inkscape:window-width="1366"
     inkscape:window-height="704"
     inkscape:window-x="0"
     inkscape:window-y="27"
     inkscape:window-maximized="1" />
  <metadata
     id="metadata7">
    <rdf:RDF>
      <cc:Work
         rdf:about="">
        <dc:format>image/svg+xml</dc:format>
        <dc:type
           rdf:resource="http://purl.org/dc/dcmitype/StillImage" />
        <dc:title></dc:title>
      </cc:Work>
    </rdf:RDF>
  </metadata>
  <g
     inkscape:label="Calque 1"
     inkscape:groupmode="layer"
     id="layer1"
     transform="translate(0,27.63784)">
    <rect
       style="opacity:1;fill:#333333;fill-opacity:1;fill-rule:evenodd;stroke:#000000;stroke-width:8;stroke-linecap:round;stroke-linejoin:round;stroke-miterlimit:4;stroke-dasharray:none;stroke-dashoffset:0;stroke-opacity:1"
       id="rect4144"
       width="74.979973"
       height="102.75034"
       x="-1186.8188"
       y="361.27765"
       transform="matrix(-0.91567213,-0.40192605,-0.40192605,0.91567213,0,0)" />
    <rect
       transform="matrix(-0.91567213,-0.40192605,-0.40192605,0.91567213,0,0)"
       y="421.87384"
       x="-1034.277"
       height="102.75034"
       width="74.979973"
       id="rect4140"
       style="opacity:1;fill:#333333;fill-opacity:1;fill-rule:evenodd;stroke:#000000;stroke-width:8;stroke-linecap:round;stroke-linejoin:round;stroke-miterlimit:4;stroke-dasharray:none;stroke-dashoffset:0;stroke-opacity:1" />
    <path
       style="opacity:1;fill:#666666;fill-opacity:1;fill-rule:evenodd;stroke:none;stroke-width:8;stroke-linecap:round;stroke-linejoin:round;stroke-miterlimit:4;stroke-dasharray:none;stroke-dashoffset:0;stroke-opacity:1"
       d="m 826.64518,521.55949 a 176.34178,155.51402 0 0 0 -176.3418,155.51367 176.34178,155.51402 0 0 0 53.80274,111.60156 l 44.52929,107.41211 68.65625,-30.13672 -15.40234,-35.09179 a 176.34178,155.51402 0 0 0 24.75586,1.73046 176.34178,155.51402 0 0 0 73.24609,-14.25976 l 34.13086,77.75781 68.65627,-30.13672 -39.68166,-90.40625 A 176.34178,155.51402 0 0 0 1002.987,677.07316 176.34178,155.51402 0 0 0 826.64518,521.55949 Z"
       id="path4136"
       inkscape:connector-curvature="0" />
    <path
       style="display:inline;opacity:1;fill:#333333;fill-opacity:1;fill-rule:evenodd;stroke:none;stroke-width:8;stroke-linecap:round;stroke-linejoin:round;stroke-miterlimit:4;stroke-dasharray:none;stroke-dashoffset:0;stroke-opacity:1"
       d="m 655.84635,715.20792 a 176.34178,155.51402 0 0 0 170.79883,117.38086 176.34178,155.51402 0 0 0 103.82812,-30.04687 157.72487,123.26804 0 0 0 0.68164,-3.51563 205.46016,127.95509 14.370874 0 1 -136.80859,-3.25781 205.46016,127.95509 14.370874 0 1 -138.5,-80.56055 z"
       id="path4161"
       inkscape:connector-curvature="0" />
    <path
       id="path4174"
       d="m 826.64518,521.55949 a 176.34178,155.51402 0 0 0 -176.3418,155.51367 176.34178,155.51402 0 0 0 53.80274,111.60156 l 44.52929,107.41211 68.65625,-30.13672 -15.40234,-35.09179 a 176.34178,155.51402 0 0 0 24.75586,1.73046 176.34178,155.51402 0 0 0 73.24609,-14.25976 l 34.13086,77.75781 68.65627,-30.13672 -39.68166,-90.40625 A 176.34178,155.51402 0 0 0 1002.987,677.07316 176.34178,155.51402 0 0 0 826.64518,521.55949 Z"
       style="opacity:1;fill:none;fill-opacity:1;fill-rule:evenodd;stroke:#000000;stroke-width:8;stroke-linecap:round;stroke-linejoin:round;stroke-miterlimit:4;stroke-dasharray:none;stroke-dashoffset:0;stroke-opacity:1"
       inkscape:connector-curvature="0" />
  </g>
  <g
     inkscape:groupmode="layer"
     id="layer4"
     inkscape:label="elephant-head"
     style="display:inline"
     transform="translate(0,312)">
    <path
       style="opacity:1;fill:#666666;fill-opacity:1;fill-rule:evenodd;stroke:#000000;stroke-width:8;stroke-linecap:round;stroke-linejoin:round;stroke-miterlimit:4;stroke-dasharray:none;stroke-dashoffset:0;stroke-opacity:1"
       d="m 1062.6696,148.90631 c -4.032,0.0653 -8.1374,0.6732 -12.3125,1.88477 -17.0948,4.96073 -18.4919,38.53483 -17.6172,59.73632 a 111.13535,94.149612 0 0 0 -44.42967,-7.9746 111.13535,94.149612 0 0 0 -107.084,68.96484 c -12.8219,-6.66465 -51.2917,-24.66943 -67.1406,-9.75781 -40.5275,38.1309 9.9721,116.84492 43.6778,161.12109 16.1662,21.23625 46.7971,55.70447 68.914,40.76563 25.2753,-17.07216 25.2117,-57.01707 23.0762,-78.71094 a 111.13535,94.149612 0 0 0 38.5566,5.91601 111.13535,94.149612 0 0 0 2.2403,-0.0664 c 10.41317,14.94168 21.46007,32.42246 26.39447,45.68554 5.6958,15.30947 9.316,32.39066 6.793,48.5293 -3.1069,19.87269 -26.20707,54.35547 -26.20707,54.35547 0,15.52983 15.53067,29.11868 30.08987,24.26563 0,0 31.0827,-40.06153 35.9121,-64.06055 4.4969,-22.34712 -7.0363,-45.15988 -7.7637,-67.94336 -0.5389,-16.88019 1.2619,-44.52729 2.5899,-61.88477 a 111.13535,94.149612 0 0 0 32.8847,-37.625 c 16.9646,12.52639 48.8039,31.06174 75.7031,18.28907 24.1095,-11.44803 10.0031,-55.34973 -0.062,-80.06836 -19.3465,-47.51042 -56.6373,-122.19268 -104.2148,-121.42188 z"
       id="path4176"
       inkscape:connector-curvature="0" />
    <ellipse
       style="opacity:1;fill:#000000;fill-opacity:1;fill-rule:evenodd;stroke:none;stroke-width:4;stroke-linecap:round;stroke-linejoin:round;stroke-miterlimit:4;stroke-dasharray:none;stroke-dashoffset:0;stroke-opacity:1"
       id="path4185"
       cx="982.76343"
       cy="310.32663"
       rx="8.1788216"
       ry="9.6085939" />
    <ellipse
       ry="9.6085939"
       rx="8.1788216"
       cy="297.53452"
       cx="1030.0554"
       id="ellipse4187"
       style="opacity:1;fill:#000000;fill-opacity:1;fill-rule:evenodd;stroke:none;stroke-width:4;stroke-linecap:round;stroke-linejoin:round;stroke-miterlimit:4;stroke-dasharray:none;stroke-dashoffset:0;stroke-opacity:1" />
  </g>
</svg>
