<?xml version="1.0" encoding="UTF-8" standalone="no"?>
<!-- Created with Inkscape (http://www.inkscape.org/) -->

<svg
   xmlns:dc="http://purl.org/dc/elements/1.1/"
   xmlns:cc="http://creativecommons.org/ns#"
   xmlns:rdf="http://www.w3.org/1999/02/22-rdf-syntax-ns#"
   xmlns:svg="http://www.w3.org/2000/svg"
   xmlns="http://www.w3.org/2000/svg"
   xmlns:sodipodi="http://sodipodi.sourceforge.net/DTD/sodipodi-0.dtd"
   xmlns:inkscape="http://www.inkscape.org/namespaces/inkscape"
   width="1920"
   height="1080"
   viewBox="0 0 1920 1080"
   id="svg2"
   version="1.1"
   inkscape:version="0.91 r13725"
   sodipodi:docname="elephant.svg">
  <defs
     id="defs4" />
  <sodipodi:namedview
     id="base"
     pagecolor="#ffffff"
     bordercolor="#666666"
     borderopacity="1.0"
     inkscape:pageopacity="0.0"
     inkscape:pageshadow="2"
     inkscape:zoom="0.66673642"
     inkscape:cx="358.89596"
     inkscape:cy="1293.6057"
     inkscape:document-units="px"
     inkscape:current-layer="layer7"
     showgrid="false"
     units="px"
     inkscape:window-width="1366"
     inkscape:window-height="704"
     inkscape:window-x="0"
     inkscape:window-y="27"
     inkscape:window-maximized="1"
     showguides="true"
     inkscape:guide-bbox="true" />
  <metadata
     id="metadata7">
    <rdf:RDF>
      <cc:Work
         rdf:about="">
        <dc:format>image/svg+xml</dc:format>
        <dc:type
           rdf:resource="http://purl.org/dc/dcmitype/StillImage" />
        <dc:title></dc:title>
      </cc:Work>
    </rdf:RDF>
  </metadata>
  <g
     inkscape:groupmode="layer"
     id="layer3"
     inkscape:label="static-background"
     style="display:inline">
    <rect
       style="display:inline;opacity:1;fill:#aaaaff;fill-opacity:1;fill-rule:evenodd;stroke:none;stroke-width:5;stroke-linecap:round;stroke-linejoin:round;stroke-miterlimit:4;stroke-dasharray:none;stroke-dashoffset:0;stroke-opacity:1"
       id="rect4227"
       width="2085.9421"
       height="1074.8281"
       x="-71.757896"
       y="-47.194809" />
    <rect
       style="display:inline;opacity:1;fill:#502d16;fill-opacity:1;fill-rule:evenodd;stroke:none;stroke-width:8;stroke-linecap:round;stroke-linejoin:round;stroke-miterlimit:4;stroke-dasharray:none;stroke-dashoffset:0;stroke-opacity:1"
       id="rect4223"
       width="2136.8225"
       height="290.77014"
       x="-135.24193"
       y="762.18146" />
  </g>
  <g
     inkscape:groupmode="layer"
     id="layer6"
     inkscape:label="mezground"
     style="display:inline">
    <path
       id="path4358"
       d="m 1041.06,67.027379 142.1153,216.861331 c 3.0802,191.15469 2.0679,328.20394 -17.1836,388.09765 l 87.9648,0 C 1231.9708,584.04333 1235.313,426.77317 1240.3354,246.5391 l 91.1153,-110.85742 -6.4942,-21.3379 -83.6719,98.04102 c 0.9638,-34.28796 1.9242,-69.03919 2.7481,-104.4668 l -13.2598,0 -7.8711,96.41993 -23.164,-96.41993 -19.8535,0 c 0.8257,42.52644 1.6339,83.02236 2.3515,121.81446 l -104.0644,-162.705081 -37.1114,0 z"
       style="display:inline;opacity:1;fill:#28170b;fill-opacity:1;fill-rule:evenodd;stroke:#000000;stroke-width:3.96929526;stroke-linecap:round;stroke-linejoin:round;stroke-miterlimit:4;stroke-dasharray:none;stroke-dashoffset:0;stroke-opacity:1"
       inkscape:connector-curvature="0" />
    <path
       sodipodi:nodetypes="cccccccccccccccccccccccc"
       inkscape:connector-curvature="0"
       id="path4360"
       d="m 1474.1262,86.697586 c 28.7817,-9.182765 -61.1715,-43.815801 -5.7332,-46.12667 66.2174,-1.192381 -21.9362,-33.7941162 -44.0593,-34.2134802 -19.1702,-6.96876765 66.4206,-14.455778 12.3762,-20.7050858 -24.4723,-4.466173 -70.3944,-5.238833 -59.5259,-9.566191 -22.4892,1.256658 -36.5241,-19.616902 -70.4024,-12.093568 -31.988,19.135439 -60.3225,26.6471258 -73.5208,30.8014599 -27.09,-0.4371759 -46.3546,-10.1919379 -77.5031,-8.4926559 -24.5596,4.9164188 -109.9299,25.797698 -100.1037,28.112825 49.1324,11.687313 -27.1888,4.421473 -39.8637,19.758227 -14.5663,9.030795 89.9233,14.027514 49.9493,15.069652 -24.4968,-1.529361 -78.37657,22.267315 -31.3157,28.549387 -21.9799,13.951792 -128.98157,46.918174 -61.22967,49.597764 44.41357,2.81353 -37.9248,25.50057 15.8606,44.16832 12.10857,5.11907 58.47457,-1.63442 30.14457,9.59821 11.2853,25.25846 24.3632,22.23555 47.7208,5.41597 -21.3216,-7.37884 44.5022,4.16149 38.5013,-32.91611 25.5734,-1.66108 98.5474,31.19289 72.3872,21.5034 25.7566,-11.14695 91.0637,-11.58033 93.5079,-1.75401 18.1701,-5.70187 99.9285,29.64137 79.0008,3.86532 23.2738,-7.28139 65.3011,4.93058 73.3457,-9.97108 -51.5361,-25.89537 24.3167,-18.14868 44.4774,-10.70216 2.3453,1.46073 4.7508,-31.64461 -14.8724,-36.17735 -23.1092,-17.26138 -24.6692,-38.618799 20.8581,-33.722174 z"
       style="fill:#338000;fill-rule:evenodd;stroke:#000000;stroke-width:10.2293272;stroke-linecap:round;stroke-linejoin:round;stroke-miterlimit:4;stroke-dasharray:none;stroke-opacity:1" />
    <path
       sodipodi:nodetypes="ccccc"
       inkscape:connector-curvature="0"
       id="path4354"
       d="m 2582.7652,202.71822 67.5791,0 c -5.7918,249.04585 -18.505,478.39097 10.4538,594.2263 l -92.6682,0 c 26.063,-81.08475 20.4271,-295.95044 14.6353,-594.2263 z"
       style="display:inline;opacity:1;fill:#28170b;fill-opacity:1;fill-rule:evenodd;stroke:#000000;stroke-width:4.18151379;stroke-linecap:round;stroke-linejoin:round;stroke-miterlimit:4;stroke-dasharray:none;stroke-dashoffset:0;stroke-opacity:1" />
    <path
       sodipodi:nodetypes="ccccccccccccc"
       inkscape:connector-curvature="0"
       id="path4356"
       d="m 2638.2794,221.76225 c 86.258,35.83021 125.1301,119.20913 195.5873,220.9305 54.5325,-159.70649 -146.363,-266.30306 -146.363,-266.30306 123.4153,45.11953 284.8817,53.7172 284.8817,53.7172 -26.5408,-83.60383 -298.1521,-121.89133 -298.1521,-121.89133 98.2014,-51.754752 285.5958,16.2788 285.5958,16.2788 -168.5347,-177.824027 -341.821,-21.46327 -341.821,-21.46327 -82.2767,-159.245384 -279.0955,45.5975 -279.0955,45.5975 0,0 225.8845,-66.700879 229.8656,3.6325 -145.9749,6.63522 -212.1249,44.16922 -212.1249,146.35169 72.9876,-79.6227 195.8236,-93.49481 195.8236,-93.49481 -175.1698,112.79882 -37.1657,213.44337 -37.1657,213.44337 36.1985,-198.36792 122.9682,-196.79909 122.9682,-196.79909 z"
       style="display:inline;fill:#de8787;fill-rule:evenodd;stroke:#000000;stroke-width:4.18151379;stroke-linecap:butt;stroke-linejoin:miter;stroke-miterlimit:4;stroke-dasharray:none;stroke-opacity:1" />
    <path
       style="display:inline;opacity:1;fill:#28170b;fill-opacity:1;fill-rule:evenodd;stroke:#000000;stroke-width:3.96929526;stroke-linecap:round;stroke-linejoin:round;stroke-miterlimit:4;stroke-dasharray:none;stroke-dashoffset:0;stroke-opacity:1"
       d="M 139.16406 161.51172 L 281.2793 378.37305 C 284.35957 569.52774 283.34724 706.57699 264.0957 766.4707 L 352.06055 766.4707 C 330.07481 678.52767 333.41706 521.25751 338.43945 341.02344 L 429.55469 230.16602 L 423.06055 208.82812 L 339.38867 306.86914 C 340.35242 272.58118 341.31281 237.82995 342.13672 202.40234 L 328.87695 202.40234 L 321.00586 298.82227 L 297.8418 202.40234 L 277.98828 202.40234 C 278.81405 244.92878 279.62221 285.4247 280.33984 324.2168 L 176.27539 161.51172 L 139.16406 161.51172 z "
       id="path4333" />
    <path
       style="fill:#0b280b;fill-rule:evenodd;stroke:#000000;stroke-width:8;stroke-linecap:butt;stroke-linejoin:miter;stroke-miterlimit:4;stroke-dasharray:none;stroke-opacity:1"
       d="m 379.65871,366.69336 c -19.70743,-0.0973 -38.32694,8.17592 -45.68945,27.98633 -19.75919,39.22469 -61.30264,11.18644 -84.12696,-8.24414 -33.37728,-29.5536 -60.60457,12.14468 -93.34179,17.98633 -36.2142,14.93157 -83.315832,42.03976 -77.541023,87.83789 -20.725528,47.61608 -62.491573,85.1978 -72.9296877,137.48046 -16.7819183,96.94915 71.4431777,138.6443 167.7500007,137.15625 33.48718,-6.08521 64.06872,-6.87361 96.49219,5.79297 125.38826,26.77407 254.55718,4.23313 381.6875,-1.61718 45.22393,-1.82872 102.87327,4.24021 144.7207,2.1582 37.25991,12.73746 120.23357,0.98239 180.85157,3.43359 127.13034,5.85031 256.29924,28.39126 381.68744,1.61719 32.4235,-12.66658 63.005,-11.87818 96.4922,-5.79297 7.0696,0.10924 14.0929,-0.0219 21.0371,-0.38281 31.9341,27.51602 82.6145,15.85643 135.7676,15.03515 33.4872,-6.08521 64.0687,-6.87361 96.4922,5.79297 125.3882,26.77407 254.5571,4.23313 381.6875,-1.61718 60.618,-2.4512 143.5916,9.30386 180.8515,-3.4336 41.8475,2.08201 99.4968,-3.98692 144.7207,-2.1582 127.1304,5.85031 256.2993,28.39126 381.6875,1.61719 32.4235,-12.66658 63.005,-11.87818 96.4922,-5.79297 96.3068,1.48805 184.5319,-40.2071 167.75,-137.15625 -10.4381,-52.28266 -52.2041,-89.86439 -72.9297,-137.48047 5.7748,-45.79813 -41.3268,-72.90632 -77.541,-87.83789 -32.7372,-5.84164 -59.9645,-47.53993 -93.3418,-17.98633 -22.8243,19.43058 -64.3677,47.46883 -84.1269,8.24414 -7.3625,-19.81041 -25.9821,-28.08363 -45.6895,-27.98633 -17.3889,0.0858 -35.6245,6.68905 -47.7168,17.63282 -30.1314,24.19349 -68.0507,62.30049 -109.5429,38.82031 -23.8623,-26.02337 -64.0418,-14.88981 -75.4336,17.56055 -24.4448,35.64914 -37.5227,-37.24071 -71.918,-23.98047 -46.7211,1.3223 -61.7592,53.61016 -89.75,82.0039 -11.7852,21.40026 -41.594,10.30777 -75.5176,-6.24609 -33.9237,-16.55386 -48.9625,-68.84176 -95.6836,-70.16406 -34.3953,-13.26024 -47.4732,59.62765 -71.918,23.97851 -11.3917,-32.45035 -51.5713,-43.58391 -75.4335,-17.56055 -41.4923,23.48019 -79.4115,-14.62682 -109.543,-38.82031 -25.7969,-23.34672 -79.5474,-26.93665 -93.4063,10.35352 -19.7592,39.22469 -61.3007,11.18644 -84.125,-8.24414 -33.3773,-29.5536 -60.6065,12.14665 -93.3437,17.98828 -15.1649,6.25268 -32.2264,38.65129 -46.5274,49.65234 -9.4567,-31.87445 -46.2021,-52.13462 -75.7187,-64.30469 -32.7372,-5.84163 -59.9665,-47.54188 -93.3438,-17.98828 -22.8243,19.43058 -64.3658,47.46883 -84.125,8.24414 -13.8589,-37.29017 -67.6093,-33.70023 -93.4062,-10.35351 -30.1315,24.19349 -68.0507,62.30049 -109.543,38.82031 -23.8622,-26.02337 -64.0418,-14.8898 -75.4335,17.56055 -24.44482,35.64914 -37.52269,-37.23876 -71.91799,-23.97852 -46.7211,1.3223 -61.75992,53.6102 -95.68359,70.16407 -33.92366,16.55385 -63.73236,27.64635 -75.51758,6.24609 -27.99078,-28.39374 -43.02893,-80.68161 -89.75,-82.00391 -34.39532,-13.26024 -47.47319,59.62961 -71.91797,23.98047 -11.39185,-32.45035 -51.57145,-43.58392 -75.4336,-17.56055 -41.49232,23.48018 -79.4115,-14.62682 -109.54296,-38.82031 -12.0923,-10.94377 -30.32789,-17.54698 -47.7168,-17.63281 z"
       id="path4286"
       inkscape:connector-curvature="0"
       sodipodi:nodetypes="scccccccccccccccccccccccccscccccscccccccccccccccscccccs" />
    <path
       style="display:inline;opacity:1;fill:#28170b;fill-opacity:1;fill-rule:evenodd;stroke:#000000;stroke-width:4.18151379;stroke-linecap:round;stroke-linejoin:round;stroke-miterlimit:4;stroke-dasharray:none;stroke-dashoffset:0;stroke-opacity:1"
       d="m 1719.5219,202.71822 67.5791,0 c -5.7918,249.04585 -18.505,478.39097 10.4538,594.2263 l -92.6682,0 c 26.063,-81.08475 20.4271,-295.95044 14.6353,-594.2263 z"
       id="path4316"
       inkscape:connector-curvature="0"
       sodipodi:nodetypes="ccccc" />
    <path
       style="display:inline;fill:#b3b3b3;fill-rule:evenodd;stroke:#000000;stroke-width:4.18151379;stroke-linecap:butt;stroke-linejoin:miter;stroke-miterlimit:4;stroke-dasharray:none;stroke-opacity:1"
       d="m 1745.5841,221.76225 c -86.258,35.83021 -125.1301,119.20913 -195.5873,220.9305 -54.5325,-159.70649 146.363,-266.30306 146.363,-266.30306 -123.4153,45.11953 -284.8817,53.7172 -284.8817,53.7172 26.5408,-83.60383 298.1521,-121.89133 298.1521,-121.89133 -98.2014,-51.754752 -285.5958,16.2788 -285.5958,16.2788 168.5347,-177.824027 341.821,-21.46327 341.821,-21.46327 82.2767,-159.245384 279.0955,45.5975 279.0955,45.5975 0,0 -225.8845,-66.700879 -229.8656,3.6325 145.9749,6.63522 212.1249,44.16922 212.1249,146.35169 -72.9876,-79.6227 -195.8236,-93.49481 -195.8236,-93.49481 175.1698,112.79882 37.1657,213.44337 37.1657,213.44337 -36.1985,-198.36792 -122.9682,-196.79909 -122.9682,-196.79909 z"
       id="path4318"
       inkscape:connector-curvature="0"
       sodipodi:nodetypes="ccccccccccccc" />
    <path
       style="fill:#338000;fill-rule:evenodd;stroke:#000000;stroke-width:8;stroke-linecap:round;stroke-linejoin:round;stroke-miterlimit:4;stroke-dasharray:none;stroke-opacity:1"
       d="m 114.03868,178.74441 c -22.509217,-7.18152 47.84011,-34.26681 4.48368,-36.07406 -51.786277,-0.93252 17.15558,-26.4292 34.45733,-26.75717 14.99225,-5.45003 -51.94527,-11.30536 -9.67902,-16.192726 19.13883,-3.492838 55.05297,-4.097108 46.55307,-7.481384 17.588,0.982788 28.56422,-15.341695 55.05928,-9.457958 25.01675,14.96516 47.1761,20.839788 57.498,24.088748 21.18624,-0.3419 36.25236,-7.970759 60.61256,-6.64181 19.2072,3.84496 85.97231,20.17548 78.28754,21.98606 -38.42468,9.14024 21.2634,3.45788 31.17601,15.45222 11.3918,7.06267 -70.32588,10.97043 -39.06354,11.78545 19.15805,-1.19606 61.29558,17.41449 24.4909,22.32748 17.18969,10.91121 100.87198,36.69307 47.88557,38.78868 -34.73433,2.20037 29.65972,19.94311 -12.40402,34.54251 -9.46973,4.00344 -45.73094,-1.27823 -23.57496,7.50642 -8.82589,19.75376 -19.05366,17.38965 -37.32082,4.23564 16.67484,-5.77073 -34.80364,3.25456 -30.1105,-25.74254 -20.00016,-1.29907 -77.07051,24.39487 -56.61155,16.81706 -20.14341,-8.71764 -71.21772,-9.05657 -73.12928,-1.37175 -14.21019,-4.45923 -78.15056,23.18148 -61.78376,3.02293 -18.20159,-5.69452 -51.06975,3.85604 -57.36109,-7.79803 40.30461,-20.25187 -19.01728,-14.19345 -34.78425,-8.36979 -1.83415,1.14239 -3.71538,-24.74814 11.63121,-28.29304 18.07292,-13.49953 19.29292,-30.20242 -16.31236,-26.37294 z"
       id="path4345"
       inkscape:connector-curvature="0"
       sodipodi:nodetypes="cccccccccccccccccccccccc" />
  </g>
  <g
     inkscape:label="elephant3"
     inkscape:groupmode="layer"
     id="layer1"
     transform="translate(0,27.63784)"
     style="display:inline">
    <rect
       style="display:inline;opacity:1;fill:#333333;fill-opacity:1;fill-rule:evenodd;stroke:#000000;stroke-width:8;stroke-linecap:round;stroke-linejoin:round;stroke-miterlimit:4;stroke-dasharray:none;stroke-dashoffset:0;stroke-opacity:1"
       id="rect4144"
       width="74.979973"
       height="102.75034"
       x="-512.3537"
       y="1134.1907"
       transform="matrix(-0.90011286,0.4356568,0.4356568,0.90011286,0,-27.63784)" />
    <rect
       transform="matrix(-0.92403501,0.38230787,0.38230787,0.92403501,0,-27.63784)"
       y="1034.2883"
       x="-414.61725"
       height="102.75034"
       width="74.979973"
       id="rect4140"
       style="display:inline;opacity:1;fill:#333333;fill-opacity:1;fill-rule:evenodd;stroke:#000000;stroke-width:8;stroke-linecap:round;stroke-linejoin:round;stroke-miterlimit:4;stroke-dasharray:none;stroke-dashoffset:0;stroke-opacity:1"
       inkscape:transform-center-x="-9.868077"
       inkscape:transform-center-y="27.697007" />
    <path
       sodipodi:nodetypes="scccccccccccs"
       inkscape:connector-curvature="0"
       style="opacity:1;fill:#666666;fill-opacity:1;fill-rule:evenodd;stroke:none;stroke-width:8;stroke-linecap:round;stroke-linejoin:round;stroke-miterlimit:4;stroke-dasharray:none;stroke-dashoffset:0;stroke-opacity:1"
       d="m 826.64518,521.55949 c -97.39073,-10e-6 -176.34158,69.62578 -176.3418,155.51367 0.0707,42.08852 19.4828,82.35447 53.80274,111.60156 l -34.36586,76.3322 65.07011,29.63234 30.02214,-71.55092 c 15.36787,8.26145 53.52486,9.43739 61.81267,9.50044 25.29243,-0.0659 24.83316,-1.11057 24.83316,-1.11057 l -19.66129,41.29869 66.8632,30.23002 64.31649,-127.46306 c 25.82226,-27.76716 39.95196,-62.55976 39.99026,-98.4707 -2e-4,-85.8879 -78.95108,-155.51369 -176.34182,-155.51367 z"
       id="path4197" />
    <path
       style="display:inline;opacity:1;fill:#333333;fill-opacity:1;fill-rule:evenodd;stroke:none;stroke-width:8;stroke-linecap:round;stroke-linejoin:round;stroke-miterlimit:4;stroke-dasharray:none;stroke-dashoffset:0;stroke-opacity:1"
       d="m 655.84635,715.20792 a 176.34178,155.51402 0 0 0 170.79883,117.38086 176.34178,155.51402 0 0 0 103.82812,-30.04687 157.72487,123.26804 0 0 0 0.68164,-3.51563 205.46016,127.95509 14.370874 0 1 -136.80859,-3.25781 205.46016,127.95509 14.370874 0 1 -138.5,-80.56055 z"
       id="path4161"
       inkscape:connector-curvature="0" />
    <path
       id="path4174"
       d="m 826.64518,521.55949 c -97.39073,-10e-6 -176.34158,69.62578 -176.3418,155.51367 0.0707,42.08852 19.4828,82.35447 53.80274,111.60156 l -34.36586,76.3322 65.07011,29.63234 30.02214,-71.55092 c 15.36787,8.26145 53.52486,9.43739 61.81267,9.50044 25.29243,-0.0659 24.83316,-1.11057 24.83316,-1.11057 l -19.66129,41.29869 66.8632,30.23002 64.31649,-127.46306 c 25.82226,-27.76716 39.95196,-62.55976 39.99026,-98.4707 -2e-4,-85.8879 -78.95108,-155.51369 -176.34182,-155.51367 z"
       style="opacity:1;fill:none;fill-opacity:1;fill-rule:evenodd;stroke:#000000;stroke-width:8;stroke-linecap:round;stroke-linejoin:round;stroke-miterlimit:4;stroke-dasharray:none;stroke-dashoffset:0;stroke-opacity:1"
       inkscape:connector-curvature="0"
       sodipodi:nodetypes="scccccccccccs" />
  </g>
  <g
     style="display:inline"
     transform="translate(0,27.63784)"
     id="g4209"
     inkscape:groupmode="layer"
     inkscape:label="elephant2">
    <path
       id="path4221"
       d="m 826.64518,521.55949 c -97.39073,-10e-6 -176.34158,69.62578 -176.3418,155.51367 0.0707,42.08852 16.64444,82.35447 50.96438,111.60156 l 0,107.58486 62.23176,0 1.33299,-73.17124 c 15.36787,8.26145 53.52486,9.43739 61.81267,9.50044 25.29243,-0.0659 50.30383,-7.08748 50.30383,-7.08748 l -0.53519,70.75828 56.93248,0 0.58892,-89.76681 29.06152,-30.94891 c 25.82226,-27.76716 39.95196,-62.55976 39.99026,-98.4707 -2e-4,-85.8879 -78.95108,-155.51369 -176.34182,-155.51367 z"
       style="opacity:1;fill:#666666;fill-opacity:1;fill-rule:evenodd;stroke:#000000;stroke-width:8;stroke-linecap:round;stroke-linejoin:round;stroke-miterlimit:4;stroke-dasharray:none;stroke-dashoffset:0;stroke-opacity:1"
       inkscape:connector-curvature="0"
       sodipodi:nodetypes="sccccccccccccs" />
    <path
       inkscape:connector-curvature="0"
       id="path4217"
       d="m 655.84635,715.20792 a 176.34178,155.51402 0 0 0 170.79883,117.38086 176.34178,155.51402 0 0 0 103.82812,-30.04687 157.72487,123.26804 0 0 0 0.68164,-3.51563 205.46016,127.95509 14.370874 0 1 -136.80859,-3.25781 205.46016,127.95509 14.370874 0 1 -138.5,-80.56055 z"
       style="display:inline;opacity:1;fill:#333333;fill-opacity:1;fill-rule:evenodd;stroke:none;stroke-width:8;stroke-linecap:round;stroke-linejoin:round;stroke-miterlimit:4;stroke-dasharray:none;stroke-dashoffset:0;stroke-opacity:1" />
    <path
       sodipodi:nodetypes="sccccccccccccs"
       inkscape:connector-curvature="0"
       style="opacity:1;fill:none;fill-opacity:1;fill-rule:evenodd;stroke:#000000;stroke-width:8;stroke-linecap:round;stroke-linejoin:round;stroke-miterlimit:4;stroke-dasharray:none;stroke-dashoffset:0;stroke-opacity:1"
       d="m 826.64518,521.55949 c -97.39073,-10e-6 -176.34158,69.62578 -176.3418,155.51367 0.0707,42.08852 16.64444,82.35447 50.96438,111.60156 l 0,107.58486 62.23176,0 1.33299,-73.17124 c 15.36787,8.26145 53.52486,9.43739 61.81267,9.50044 25.29243,-0.0659 50.30383,-7.08748 50.30383,-7.08748 l -0.53519,70.75828 56.93248,0 0.58892,-89.76681 29.06152,-30.94891 c 25.82226,-27.76716 39.95196,-62.55976 39.99026,-98.4707 -2e-4,-85.8879 -78.95108,-155.51369 -176.34182,-155.51367 z"
       id="path4219" />
  </g>
  <g
     inkscape:groupmode="layer"
     id="layer2"
     inkscape:label="elephant1"
     style="display:inline">
    <rect
       transform="matrix(-0.91567213,-0.40192605,-0.40192605,0.91567213,0,27.63784)"
       y="361.27765"
       x="-1186.8188"
       height="102.75034"
       width="74.979973"
       id="rect4199"
       style="display:inline;opacity:1;fill:#333333;fill-opacity:1;fill-rule:evenodd;stroke:#000000;stroke-width:8;stroke-linecap:round;stroke-linejoin:round;stroke-miterlimit:4;stroke-dasharray:none;stroke-dashoffset:0;stroke-opacity:1" />
    <rect
       style="display:inline;opacity:1;fill:#333333;fill-opacity:1;fill-rule:evenodd;stroke:#000000;stroke-width:8;stroke-linecap:round;stroke-linejoin:round;stroke-miterlimit:4;stroke-dasharray:none;stroke-dashoffset:0;stroke-opacity:1"
       id="rect4201"
       width="74.979973"
       height="102.75034"
       x="-1034.277"
       y="421.87384"
       transform="matrix(-0.91567213,-0.40192605,-0.40192605,0.91567213,0,27.63784)" />
    <path
       inkscape:connector-curvature="0"
       id="path4186"
       d="m 826.64518,521.55949 a 176.34178,155.51402 0 0 0 -176.3418,155.51367 176.34178,155.51402 0 0 0 53.80274,111.60156 l 44.52929,107.41211 68.65625,-30.13672 -15.40234,-35.09179 a 176.34178,155.51402 0 0 0 24.75586,1.73046 176.34178,155.51402 0 0 0 73.24609,-14.25976 l 34.13086,77.75781 68.65627,-30.13672 -39.68166,-90.40625 A 176.34178,155.51402 0 0 0 1002.987,677.07316 176.34178,155.51402 0 0 0 826.64518,521.55949 Z"
       style="opacity:1;fill:#666666;fill-opacity:1;fill-rule:evenodd;stroke:none;stroke-width:8;stroke-linecap:round;stroke-linejoin:round;stroke-miterlimit:4;stroke-dasharray:none;stroke-dashoffset:0;stroke-opacity:1"
       transform="translate(0,27.63784)" />
    <path
       transform="translate(0,27.63784)"
       inkscape:connector-curvature="0"
       id="path4190"
       d="m 655.84635,715.20792 a 176.34178,155.51402 0 0 0 170.79883,117.38086 176.34178,155.51402 0 0 0 103.82812,-30.04687 157.72487,123.26804 0 0 0 0.68164,-3.51563 205.46016,127.95509 14.370874 0 1 -136.80859,-3.25781 205.46016,127.95509 14.370874 0 1 -138.5,-80.56055 z"
       style="display:inline;opacity:1;fill:#333333;fill-opacity:1;fill-rule:evenodd;stroke:none;stroke-width:8;stroke-linecap:round;stroke-linejoin:round;stroke-miterlimit:4;stroke-dasharray:none;stroke-dashoffset:0;stroke-opacity:1" />
    <path
       style="opacity:1;fill:none;fill-opacity:1;fill-rule:evenodd;stroke:#000000;stroke-width:8;stroke-linecap:round;stroke-linejoin:round;stroke-miterlimit:4;stroke-dasharray:none;stroke-dashoffset:0;stroke-opacity:1"
       d="m 826.64518,521.55949 a 176.34178,155.51402 0 0 0 -176.3418,155.51367 176.34178,155.51402 0 0 0 53.80274,111.60156 l 44.52929,107.41211 68.65625,-30.13672 -15.40234,-35.09179 a 176.34178,155.51402 0 0 0 24.75586,1.73046 176.34178,155.51402 0 0 0 73.24609,-14.25976 l 34.13086,77.75781 68.65627,-30.13672 -39.68166,-90.40625 A 176.34178,155.51402 0 0 0 1002.987,677.07316 176.34178,155.51402 0 0 0 826.64518,521.55949 Z"
       id="path4193"
       inkscape:connector-curvature="0"
       transform="translate(0,27.63784)" />
  </g>
  <g
     inkscape:groupmode="layer"
     id="layer4"
     inkscape:label="elephant-head"
     style="display:inline"
     transform="translate(0,312)">
    <path
       style="opacity:1;fill:#666666;fill-opacity:1;fill-rule:evenodd;stroke:#000000;stroke-width:8;stroke-linecap:round;stroke-linejoin:round;stroke-miterlimit:4;stroke-dasharray:none;stroke-dashoffset:0;stroke-opacity:1"
       d="m 1062.6696,148.90631 c -4.032,0.0653 -8.1374,0.6732 -12.3125,1.88477 -17.0948,4.96073 -18.4919,38.53483 -17.6172,59.73632 a 111.13535,94.149612 0 0 0 -44.42967,-7.9746 111.13535,94.149612 0 0 0 -107.084,68.96484 c -12.8219,-6.66465 -51.2917,-24.66943 -67.1406,-9.75781 -40.5275,38.1309 9.9721,116.84492 43.6778,161.12109 16.1662,21.23625 46.7971,55.70447 68.914,40.76563 25.2753,-17.07216 25.2117,-57.01707 23.0762,-78.71094 a 111.13535,94.149612 0 0 0 38.5566,5.91601 111.13535,94.149612 0 0 0 2.2403,-0.0664 c 10.41317,14.94168 21.46007,32.42246 26.39447,45.68554 5.6958,15.30947 9.316,32.39066 6.793,48.5293 -3.1069,19.87269 -26.20707,54.35547 -26.20707,54.35547 0,15.52983 15.53067,29.11868 30.08987,24.26563 0,0 31.0827,-40.06153 35.9121,-64.06055 4.4969,-22.34712 -7.0363,-45.15988 -7.7637,-67.94336 -0.5389,-16.88019 1.2619,-44.52729 2.5899,-61.88477 a 111.13535,94.149612 0 0 0 32.8847,-37.625 c 16.9646,12.52639 48.8039,31.06174 75.7031,18.28907 24.1095,-11.44803 10.0031,-55.34973 -0.062,-80.06836 -19.3465,-47.51042 -56.6373,-122.19268 -104.2148,-121.42188 z"
       id="path4176"
       inkscape:connector-curvature="0" />
    <ellipse
       style="opacity:1;fill:#000000;fill-opacity:1;fill-rule:evenodd;stroke:none;stroke-width:4;stroke-linecap:round;stroke-linejoin:round;stroke-miterlimit:4;stroke-dasharray:none;stroke-dashoffset:0;stroke-opacity:1"
       id="path4185"
       cx="982.76343"
       cy="310.32663"
       rx="8.1788216"
       ry="9.6085939" />
    <ellipse
       ry="9.6085939"
       rx="8.1788216"
       cy="297.53452"
       cx="1030.0554"
       id="ellipse4187"
       style="opacity:1;fill:#000000;fill-opacity:1;fill-rule:evenodd;stroke:none;stroke-width:4;stroke-linecap:round;stroke-linejoin:round;stroke-miterlimit:4;stroke-dasharray:none;stroke-dashoffset:0;stroke-opacity:1" />
  </g>
  <g
     inkscape:groupmode="layer"
     id="layer7"
     inkscape:label="balloon">
    <path
       style="fill:none;fill-rule:evenodd;stroke:#000000;stroke-width:8;stroke-linecap:butt;stroke-linejoin:miter;stroke-miterlimit:4;stroke-dasharray:none;stroke-opacity:1"
       d="M 0.7499215,-517.44586 0.7499215,0"
       id="path4374"
       inkscape:connector-curvature="0"
       sodipodi:nodetypes="cc" />
    <ellipse
       style="display:inline;opacity:1;fill:#ff0000;fill-opacity:1;fill-rule:evenodd;stroke:#000000;stroke-width:8;stroke-linecap:round;stroke-linejoin:round;stroke-miterlimit:4;stroke-dasharray:none;stroke-dashoffset:0;stroke-opacity:1"
       id="path4362"
       cx="-0.00021630859"
       cy="-579.12488"
       rx="71.365784"
       ry="86.549988" />
    <path
       style="fill:#ffffff;fill-rule:evenodd;stroke:none;stroke-width:1px;stroke-linecap:butt;stroke-linejoin:miter;stroke-opacity:1"
       d="m 12.1329,-638.73391 c 0,0 11.8105,3.75791 19.8631,12.88423 -2.1473,-9.66317 -12.8842,-19.86318 -12.8842,-19.86318"
       id="path4368"
       inkscape:connector-curvature="0"
       sodipodi:nodetypes="ccc" />
  </g>
  <g
     inkscape:groupmode="layer"
     id="layer5"
     inkscape:label="foreground"
     style="display:inline">
    <path
       sodipodi:nodetypes="ccccc"
       inkscape:connector-curvature="0"
       id="path4267"
       d="m 3048.2051,463.48528 64.6456,0 c -5.5404,238.2351 -17.7018,457.62465 10,568.43172 l -88.6456,0 c 24.9316,-77.56497 19.5404,-283.10363 14,-568.43172 z"
       style="opacity:1;fill:#28170b;fill-opacity:1;fill-rule:evenodd;stroke:#000000;stroke-width:4;stroke-linecap:round;stroke-linejoin:round;stroke-miterlimit:4;stroke-dasharray:none;stroke-dashoffset:0;stroke-opacity:1" />
    <path
       style="opacity:1;fill:#28170b;fill-opacity:1;fill-rule:evenodd;stroke:#000000;stroke-width:4;stroke-linecap:round;stroke-linejoin:round;stroke-miterlimit:4;stroke-dasharray:none;stroke-dashoffset:0;stroke-opacity:1"
       d="m 185.33789,371.65234 92.06641,156.75977 c 5.42927,276.20777 10.2142,437.417 -14.28125,513.62499 l 88.64453,0 C 324.35702,932.39507 335.96721,756.10769 341.58203,521.61523 l 53.21289,-149.96289 -35.63476,0 -41.80078,107.90235 -6.625,-107.90235 -41.2129,0 9.75586,105.36328 -58.96484,-105.36328 -34.97461,0 z"
       id="path4247"
       inkscape:connector-curvature="0" />
    <path
       style="opacity:1;fill:#002b11;fill-opacity:1;fill-rule:evenodd;stroke:#000000;stroke-width:4.35724068;stroke-linecap:round;stroke-linejoin:round;stroke-miterlimit:4;stroke-dasharray:none;stroke-dashoffset:0;stroke-opacity:1"
       d="m 498.71118,328.4917 c 5.33294,1.68021 8.93988,4.98901 -0.25314,6.23312 9.70122,3.52804 6.39745,18.80502 -4.30053,19.9416 9.55446,10.38444 -0.14832,16.73438 -7.5277,15.94599 7.97273,10.4061 -3.00263,18.20446 -10.12177,14.14217 4.24714,9.28382 -7.26854,23.06605 -14.80197,14.85353 2.1558,9.76375 -7.69145,16.09714 -13.51852,10.37028 1.83897,11.6032 -11.06299,20.3216 -17.74674,10.74844 -0.49649,14.94059 -15.76329,13.18364 -21.75311,10.08223 -1.89366,9.41301 -9.10985,14.96311 -17.3219,6.17761 -3.3847,10.39571 -8.77278,10.16666 -17.37857,4.84078 -3.96602,7.95814 -19.69199,12.0915 -25.59684,4.98859 -5.00764,10.41646 -15.87179,1.93609 -15.87179,1.93609 -5.96126,9.575 -13.44081,6.8934 -17.50448,1.17821 -9.31435,12.47192 -8.4087,0.24895 -12.66247,0.24895 -10.1093,10.66588 -19.53025,11.06076 -28.27169,3.22714 -4.43284,6.82121 -14.69149,9.73545 -22.02884,2.844 -3.51104,6.487 -28.82215,-1.40486 -28.28169,-16.20702 -4.3674,12.92256 -21.17336,14.85733 -19.50982,-6.11233 -9.40911,10.55326 -22.69326,7.21619 -22.25819,-9.28018 -14.65457,11.31551 -23.82955,-4.9391 -23.93099,-13.61707 -11.42844,7.32658 -25.38757,8.7413 -17.95447,-13.96851 -18.3015,7.39115 -23.47275,-5.07733 -18.19195,-20.47994 -10.36409,2.05737 -19.747,-0.88802 -11.19345,-21.40201 -14.782143,-4.90115 -16.904495,-15.88448 -4.73843,-26.69167 -16.405163,-10.79616 -7.697126,-27.77638 4.36628,-25.63914 -16.534434,-16.12282 -4.67859,-28.37275 11.43694,-22.26899 -10.40929,-19.06655 0.63971,-20.04472 7.92483,-10.12792 -9.52536,-20.81685 3.63047,-31.9183 17.50524,-16.5789 -2.98284,-27.52849 11.29938,-24.81508 17.59322,-12.23798 -1.77309,-25.86596 7.12159,-20.35565 15.85742,-8.66265 1.77529,-25.22084 14.78259,-18.91063 23.36203,-9.84437 3.01195,-29.21443 16.76813,-20.09268 24.41534,-7.416 5.38279,-31.57005 17.41639,-18.82578 24.05952,-4.95753 7.64447,-24.98747 12.20152,-9.3882 18.45787,-2.40854 7.04811,-23.86902 15.80827,-17.12166 20.26088,-1.35372 6.08126,-10.13048 11.11995,-0.19185 11.11995,-0.19185 10.84518,-18.44457 15.60677,-13.01208 19.08614,0.56749 11.28455,-22.66722 17.31376,-16.62455 27.24165,2.83894 8.9216,-14.74745 14.14426,-20.13677 16.85612,3.0305 4.70887,-17.33044 17.32575,-8.92602 15.03368,3.60043 14.17738,-15.7542 23.83554,-0.49612 20.33146,6.37499 17.5094,-11.05523 23.01565,-6.02104 21.39966,8.92328 16.39911,-9.97189 24.13681,-7.64996 16.41927,8.79624 21.73288,-8.38353 21.00108,2.91797 15.6193,10.50292 18.96199,-6.20658 18.30978,5.19731 13.39792,11.42616 14.30187,-1.64408 14.64074,7.15288 12.0559,13.44592 18.73933,-2.57324 17.36445,14.22213 11.78506,19.56394 8.84818,2.89269 13.17845,7.99653 5.55758,17.12709 8.21879,3.22639 9.37009,11.26783 1.57579,15.48969 z"
       id="path4255"
       inkscape:connector-curvature="0"
       sodipodi:nodetypes="cccccccccccccccccccccccccccccccccccccccccccccccccc" />
    <path
       style="opacity:1;fill:#28170b;fill-opacity:1;fill-rule:evenodd;stroke:#000000;stroke-width:4;stroke-linecap:round;stroke-linejoin:round;stroke-miterlimit:4;stroke-dasharray:none;stroke-dashoffset:0;stroke-opacity:1"
       d="m 1562.5282,288.01573 64.6456,0 c -5.5404,238.2351 -17.7018,639.62465 10,750.43167 l -88.6456,0 c 24.9316,-77.56492 19.5404,-465.10358 14,-750.43167 z"
       id="rect4242"
       inkscape:connector-curvature="0"
       sodipodi:nodetypes="ccccc" />
    <path
       style="fill:#008000;fill-rule:evenodd;stroke:#000000;stroke-width:5;stroke-linecap:round;stroke-linejoin:round;stroke-miterlimit:4;stroke-dasharray:none;stroke-opacity:1"
       d="m 0,1012.4219 0,120.4668 m 0,0 c 0,0 1708.3182,-7.3966 1854.1318,-9.0176 0,0 2178.0628,-10.4352 2183.9392,-17.291 l 0,-94.1581 c -4.225,-29.99916 -12.4694,-54.71302 -12.4694,-54.71302 l -23.5059,59.74412 -14.6895,-59.74412 -27.4238,58.76562 -11.7539,-62.68163 -41.1347,74.43363 -22.5254,-70.51762 -40.1563,70.51762 -28.4023,-58.76371 -26.4434,52.88871 -14.6914,-63.66215 -28.4023,71.49605 -26.4454,-71.49605 -21.5468,62.68165 -24.4844,-66.59962 -28.4023,67.58012 -25.4649,-70.51762 -36.2383,65.61912 -27.4238,-61.70115 -44.0723,56.80465 -15.6699,-51.90816 -21.5488,69.53706 -25.4629,-75.41402 -31.3418,54.84762 -26.4434,-50.92965 -30.3613,57.78515 -15.6719,-63.6621 -31.3398,58.7637 -14.6914,-54.84573 -21.5469,58.76363 -28.4023,-58.76363 -34.2793,59.74413 -19.5879,-55.82616 -27.4239,55.82616 -20.5683,-52.88866 -25.4629,53.86716 -14.6914,-53.86716 -31.3418,53.86716 -21.5469,-53.86716 -29.3808,52.88866 -15.6719,-50.92968 -24.4844,51.90818 -20.5684,-57.78513 -24.4843,52.88863 -30.3614,-56.80465 -31.3417,63.66015 -14.6915,-51.90819 -23.5058,49.94919 -20.5664,-54.84568 -30.3613,46.03128 -23.5059,-55.8262 -32.3203,62.6816 -25.4649,-56.80465 -31.3418,53.86715 -3.916,-67.57808 -28.4043,65.61918 -17.6289,-52.88872 -21.5469,57.78512 -18.6093,-65.6191 -31.3399,62.6816 -6.8554,-59.7441 -42.1153,50.9297 -12.7324,-61.70314 -32.3203,68.55864 -17.6289,-66.59965 -24.4844,79.33205 -22.5273,-66.59963 -25.4649,59.74413 -16.6484,-49.94921 -25.4649,53.86721 -17.6289,-50.92971 -30.3633,47.01171 -22.5253,-55.82616 -14.6914,51.90816 -19.5879,-36.23824 -30.3614,19.58789 -9.7949,-27.42383 -18.6074,47.01168 -19.5879,-44.07222 -29.3828,39.17582 -11.7539,-50.92973 -36.2363,37.21875 -1.959,-39.17774 -24.4864,46.03322 -17.1396,-31.83106 -25.2217,38.54296 -12.4863,-42.10644 -27.4219,58.76364 -11.7539,-62.68161 -41.1348,74.43551 -22.5254,-70.51754 -40.1562,70.51754 -28.4023,-58.76364 -26.4454,52.88674 -14.6894,-63.66018 -28.4043,71.49608 -26.4434,-71.49608 -21.5468,62.68168 -24.4844,-66.59964 -28.4024,67.57814 -25.4648,-70.5176 -36.2383,65.6211 -27.4238,-61.70313 -44.0723,56.80663 -15.6719,-51.91014 -21.5468,69.53904 -25.4649,-75.41404 -31.3398,54.84574 -26.4434,-50.92778 -30.3633,57.78318 -15.6699,-63.66013 -31.3398,58.76363 -14.6914,-54.84566 -21.5469,58.76366 -28.4023,-58.76366 -34.2793,59.74216 -19.5879,-55.82614 -27.4239,55.82614 -20.5683,-52.88669 -25.4649,53.86719 -14.6894,-53.86719 -31.3418,53.86719 -21.5469,-53.86719 -29.3828,52.88669 -15.6699,-50.92771 -24.4844,51.90821 -20.56836,-57.78516 -24.48438,52.88866 -30.36133,-56.80663 -31.34179,63.66213 -14.69141,-51.90822 -23.50586,49.94922 -20.5664,-54.84766 -30.36133,46.03316 -23.50586,-55.82613 -32.32031,62.68163 -25.46485,-56.80468 -31.3418,53.86718 -3.91796,-67.58007 -28.40235,65.62107 -17.6289,-52.88864 -21.54688,57.78514 -18.60937,-65.62108 -31.33985,62.68358 -6.85547,-59.74413 -42.11523,50.92973 -12.73242,-61.70317 -32.32031,68.55857 -17.62891,-66.59958 -24.48633,79.33208 -22.52539,-66.59966 -25.46484,59.74216 -16.65039,-49.94919 -25.4629,53.86719 -17.63085,-50.92774 -30.36133,47.00974 -22.52539,-55.82614 -14.69141,51.91014 -19.58789,-36.23827 -30.36133,19.58787 -9.79492,-27.42381 -18.60938,47.01171 -19.58789,-44.07421 -29.38085,39.17771 -11.75391,-50.92966 -36.238282,37.21676 -1.957032,-39.17574 -24.486328,46.03324 -8.814453,-36.23832 -9.794922,42.11332 L 16.896484,986.95703 0,1012.4219"
       id="path4225"
       inkscape:connector-curvature="0"
       sodipodi:nodetypes="cccccccccccccccccccccccccccccccccccccccccccccccccccccccccccccccccccccccccccccccccccccccccccccccccccccccccccccccccccccccccccccccccccccccccccccccccccccccccccccccccccccccccccccccccc" />
    <path
       style="fill:#d35f5f;fill-rule:evenodd;stroke:#000000;stroke-width:4;stroke-linecap:butt;stroke-linejoin:miter;stroke-miterlimit:4;stroke-dasharray:none;stroke-opacity:1"
       d="m 1592.851,320.97188 c 82.5136,34.27487 119.6984,114.03441 187.0971,211.3402 52.1653,-152.77385 -140.0095,-254.7432 -140.0095,-254.7432 118.0579,43.16095 272.5154,51.38541 272.5154,51.38541 -25.3888,-79.9747 -285.2098,-116.60019 -285.2098,-116.60019 93.9386,-49.50815 273.1984,15.57215 273.1984,15.57215 -161.2188,-170.104915 -326.9829,-20.53157 -326.9829,-20.53157 -78.7052,-152.33276 -266.9804,43.61817 -266.9804,43.61817 0,0 216.0792,-63.80548 219.8875,3.47482 -139.6384,6.3472 -202.9168,42.2519 -202.9168,139.99876 69.8192,-76.16639 187.3231,-89.43633 187.3231,-89.43633 -167.566,107.90237 -35.5524,204.17808 -35.5524,204.17808 34.6272,-189.75703 117.6303,-188.2563 117.6303,-188.2563 z"
       id="path4245"
       inkscape:connector-curvature="0"
       sodipodi:nodetypes="ccccccccccccc" />
    <path
       style="opacity:1;fill:#008000;fill-opacity:1;fill-rule:evenodd;stroke:none;stroke-width:4;stroke-linecap:round;stroke-linejoin:round;stroke-miterlimit:4;stroke-dasharray:none;stroke-dashoffset:0;stroke-opacity:1"
       d="m -36.941406,1013.6211 0,116.0195 73.30664,0 0,-77.0176 -11.544922,-4.3691 -13.488281,-34.6328 -48.273437,0 z"
       id="rect4261"
       inkscape:connector-curvature="0" />
    <path
       sodipodi:nodetypes="ccccccccccccc"
       inkscape:connector-curvature="0"
       id="path4269"
       d="m 3073.136,481.70263 c -82.5136,34.27487 -119.6984,114.03441 -187.0971,211.3402 -52.1653,-152.77385 140.0095,-254.7432 140.0095,-254.7432 -118.0579,43.16095 -272.5154,51.38541 -272.5154,51.38541 25.3888,-79.9747 285.2098,-116.60019 285.2098,-116.60019 -93.9386,-49.50815 -273.1984,15.57215 -273.1984,15.57215 161.2188,-170.10492 326.9829,-20.53157 326.9829,-20.53157 78.7052,-152.33276 266.9804,43.61817 266.9804,43.61817 0,0 -216.0792,-63.80548 -219.8875,3.47482 139.6384,6.3472 202.9168,42.2519 202.9168,139.99876 -69.8192,-76.16639 -187.3231,-89.43633 -187.3231,-89.43633 167.566,107.90237 35.5524,204.17808 35.5524,204.17808 C 3156.1391,480.2019 3073.136,481.70263 3073.136,481.70263 Z"
       style="fill:#b3b3b3;fill-rule:evenodd;stroke:#000000;stroke-width:4;stroke-linecap:butt;stroke-linejoin:miter;stroke-miterlimit:4;stroke-dasharray:none;stroke-opacity:1" />
  </g>
</svg>
